<svg id="Layer_1" xmlns="http://www.w3.org/2000/svg" viewBox="0 0 393 279"><style>.st0{fill:#383736}.st1{fill:#3d4d61}.st2{fill:#fff}.st3{fill:#f06562}.st4{font-family:&amp;apos;Nickainley-Normal&amp;apos;}.st5{font-size:37.207px}.st6{font-size:34.9221px}</style><path class="st0" d="M39 135.5V96.9c0-1.8-.1-3.6.1-5.4.3-2.5 1.7-3.9 4.3-4.2 2.7-.3 5.5-.2 8.2-.2 10.7-.1 21.5 0 32.2 0 1.4 0 2.7 0 4.1.1 2.9.2 5.3-.8 7.7-2.3 4-2.4 7.6-5.4 11.8-7.7 4.2-2.3 7.8-5.4 12-7.6 3.3-1.7 6-4.2 9.3-5.9 3.3-1.6 6.3-3.9 9.4-5.9 1.4-.9 2.6-2.2 4.1-2.8 2.5-1 4.3-2.9 6.7-4 4.8-2.2 9.1-5.4 13.5-8.2 2.5-1.6 5.1-3.1 7.5-5 2-1.5 4.4-2.6 6.6-4 3.9-2.5 7.7-5 11.6-7.5 2.1-1.4 4.1-2.9 6.6-3.8 1.2-.4 2.1-.4 3.2.2 4.4 2.5 8.7 5.3 12.8 8.3.4.3.8.6 1.2.8 3.6 1.3 6.5 3.7 9.5 5.7 4.7 3.1 9.3 6.3 14.2 9.2 1.1.7 1.9 1.8 3.2 2.2 3 1.1 5.3 3.3 7.9 4.9 1.5.9 3 1.9 4.5 2.8 2 1.2 4 2.4 5.8 3.8.3.2.7.5 1 .6 3.4 1.4 6.4 3.4 9.2 5.5 3.4 2.5 7.3 4.5 10.6 7.1 2.1 1.6 4.4 3 6.7 4.3 4.3 2.4 8.1 5.4 12.4 7.6 1.8 1 3.6 1.6 5.8 1.6 13.4 0 26.9 0 40.3.1 1.3 0 2.6 0 3.9-.1 3.3-.1 5.5 2 5.5 5.2 0 17.2.1 34.4 0 51.7-.1 7.2-.1 14.4-.1 21.6 0 3.8.1 7.6.2 11.4v2.3c-.3 3.7-2.3 5.4-6.1 5.4-7.9 0-15.8-.1-23.7-.1-5.5 0-10.9 0-16.4.1-2.3 0-4.5.6-6.3 2-1.7 1.4-3.6 2.4-5.5 3.5-4.2 2.4-8.1 5.1-12.2 7.6-3.1 1.9-6.2 4-9.5 5.6-2.3 1.1-4.6 2.7-6.8 4.2-2 1.4-4.1 2.7-6.3 3.8-2 1-3.9 2.3-5.7 3.6-1.8 1.3-3.9 2.2-5.7 3.5-1.5 1.1-3.2 1.9-4.6 3.1-.7.6-1.5 1-2.4 1.1-1.1 0-1.6.9-2.4 1.4-2.2 1.2-4.3 2.5-6.4 3.8-1.9 1.3-3.7 2.7-5.7 3.9l-12 6.9c-1.3.8-2.5 1.9-3.9 2.6-3.2 1.5-5.8 3.9-8.9 5.6-1.4.8-2.8 1.6-4.3 2.2-1.4.6-2.7.6-4-.1-3.3-1.6-6.4-3.3-9.2-5.6-.6-.5-1.3-1.1-2.1-1.4-3.3-1.6-6.1-4-9.5-5.3-.7-.3-1.4-.7-2-1.1-4.9-3.6-10.3-6.6-15.6-9.7-1.2-.7-2.1-1.8-3.4-2.3-2.3-1-4.2-2.6-6.3-3.9-4-2.5-8.3-4.6-12.2-7.3-2.4-1.6-4.7-3.5-7.6-4.3-.8-.2-1.2-1-1.9-1.4-3.3-2.1-6.4-4.4-10-6.1-1-.5-1.8-1.4-2.8-1.9-6.6-3.2-12.5-7.6-18.8-11.3-2.8-1.7-5.6-2.6-9-2.6-13 .1-26.1.1-39.1 0-2.4 0-4.6-1.5-5-3.4-.2-1-.2-2.1-.2-3.1v-23.9-18.9z"/><path class="st1" d="M258.4 105.3v.6c0 .4.1.9-.4 1.1-.2.1-.4-.1-.5-.3-.1-.5-.2-1 .5-1.3.1 0 .3 0 .4-.1z"/><path class="st0" d="M304.7 134.3v-.6c0-.4-.1-.8.3-1 .2-.1.4.1.5.3.2.5.3.9-.3 1.2-.2.1-.4.1-.5.1zM318.2 132.3v1h-1.4c.3-.6.7-1.1 1.4-1zM309.8 134.7c0 .1.1.1.1.2s-.2.2-.3.1c0 0-.1-.2 0-.2 0-.1.1-.1.2-.1z"/><path class="st1" d="M260.6 94.5c.1.6.4 1 1.1 1v1c-.4 0-.7.1-1.1.1-2.4.2-2.4.2-2.2-2.1h2.2zM261.6 96.6c.1 0 .3 0 .4.1.3 0 .6.1.7.5 0 .2-.1.4-.3.4-.5.1-.6-.2-.7-.6 0-.2 0-.3-.1-.4z"/><path class="st0" d="M325 133.3c.8 0 1 .4 1.1 1.1-.7-.1-1.1-.4-1.1-1.1zM318.3 132.3c0-.4 0-.8.5-.9.1 0 .2.1.2.1.1.6-.5.6-.7.8zM199.6 65.3c.4 0 .8 0 1.2.1.4.1 1 .1.9.7-.1.6-.7.5-1.2.4-.7-.2-.7-.7-.9-1.2zM203.2 65.3h-.5c-.3 0-.5-.1-.5-.4 0-.2.1-.3.3-.4.3-.1.5.1.6.4 0 .1 0 .3.1.4z"/><path class="st1" d="M300.8 155.3c0 .2-.1.3-.3.3-.2 0-.4 0-.4-.2s.2-.3.3-.3c.2 0 .3 0 .4.2z"/><path class="st0" d="M258.4 145.2v-1.1c.7 0 1 .4 1.1 1.1h-1.1z"/><path class="st1" d="M197.5 101h1.1c-.1.4-.1.9-.6.8-.5-.1-.5-.5-.5-.8zM225 97.5c-.2 0-.3-.2-.3-.4s.2-.4.5-.3c.2 0 .3.2.2.4 0 .2-.2.3-.4.3zM217.8 84.7h1.1c-.1.3-.1.7-.5.8-.5 0-.5-.5-.6-.8zM206.4 117.2c.8 0 1.1.3 1.1 1.1-.7 0-1.1-.4-1.1-1.1z"/><path class="st0" d="M259.5 134.3c-.7-.1-1-.4-1.1-1.1.7.1 1 .5 1.1 1.1zM208.6 87c0 .3-.1.7-.5.8-.5 0-.6-.4-.6-.8h1.1zM279.8 131.2v.8c-.3-.1-.6-.1-.7-.3 0-.5.4-.4.7-.5zM235.9 95.6c-.9 0-1.7.1-2.3.8-.3.4-.8.3-1.2.3-.3-1 1.2-1.2 1.1-2.1.9.1 2.2-.6 2.4 1zM237 165.6h.8c-.1.3 0 .7-.4.7-.4-.1-.3-.5-.4-.7zM224.5 107.4c.7 0 1.1.4 1.1 1.1-.6-.1-1-.4-1.1-1.1zM175 98.9c.7.1 1 .5 1.1 1.1-.6-.2-1-.5-1.1-1.1z"/><g id="XMLID_72_"><g id="XMLID_411_"><path id="XMLID_412_" class="st2" d="M243.8 92.8c4.3-3.8 14.1-.4 19.3.4 6.1 1 12.3 1.4 17.7-1.3-.8-.4-1.6-.9-2.4-1.3.7 9.4-5.5 17.7-14.3 22.1-1.7.9-.2 3.4 1.6 2.5 9.8-4.9 16.7-14.1 15.9-24.5-.1-1-1.3-1.9-2.4-1.3-7 3.5-15.6 1-23.3-.3-4.9-.8-10.6-1.7-14.3 1.5-1.5 1.4.7 3.5 2.2 2.2z"/></g><g id="XMLID_409_"><path id="XMLID_410_" class="st2" d="M141.1 89.2c-6.2-2.6-12.4-2.7-18.7-1.1-5.2 1.3-10.5 4.6-16 4.8-1.2.1-2.3 1.4-1.1 2.3 9.6 8.1 11.6 21.3 25.2 25.5 2 .6 2.8-2 .9-2.6-12.5-3.8-14.8-17.1-23.8-24.7-.4.8-.8 1.5-1.1 2.3 4.2-.2 8-2 11.7-3.3 7.3-2.5 14.5-3.6 22.1-.5 1.8.8 2.7-1.9.8-2.7z"/></g><g id="XMLID_407_"><path id="XMLID_408_" class="st2" d="M135.1 158.3c-6.9 2.7-11.1 7.2-12.3 14-1.1 6.3 1.9 14.9-2.1 20.4-.8 1.1.8 2.7 2.1 2 3.7-1.8 8.2-3.3 12.6-3.1 5.1.2 9.5 2.1 14.7 1.9 8.7-.4 17.9-3.7 21.7-10.8.8-1.6-1.9-3.2-2.7-1.6-4.5 8.5-17.7 11.2-27.7 8.8-7.1-1.7-13.9-.7-20.1 2.4.7.7 1.4 1.4 2.1 2 3-4 2.3-9.2 2.2-13.9-.2-8.7 1.4-15.7 11-19.6 1.9-.7.3-3.2-1.5-2.5z"/></g><g id="XMLID_405_"><path id="XMLID_406_" class="st2" d="M153.8 191c-1.8 10.8 17.8 14.1 23.2 21.9.6.9 2.1 1.1 2.7.2 1.4-1.9 3-3.8 4.9-5.4 2.7-2.3 5.9-2.9 8.9-4.7 3.6-2.2 5.5-6.6 6.2-10.3.4-1.7-2.7-2.6-3.1-.9-.3 1.5-.8 2.9-1.4 4.3-1.8 3.9-4.9 4.6-8.7 6.5-4 2-7.2 5.5-9.6 8.9.9.1 1.8.1 2.7.2-2.6-3.7-6.5-6.2-10.7-8.6-4.2-2.4-13.1-5.9-12.2-11.2.4-1.8-2.6-2.7-2.9-.9z"/></g><g id="XMLID_403_"><path id="XMLID_404_" class="st2" d="M261.7 158.9c6.2 3.8 7.7 11.2 9.4 17.2 1 3.6 1.7 8.4 5 11.1v-2c-1 .9-4.5 1.1-6.3 1.1-9.5.2-19.3-2.5-28.4-5-2-.5-2.8 2.1-.9 2.6 9.8 2.7 20.6 5.7 30.8 5.1 2.2-.1 5.3-.3 6.9-1.7.6-.5.7-1.4 0-2-4.1-3.5-4.5-11.4-6.1-16-1.7-4.9-4-9.7-9-12.8-1.5-1-3.1 1.3-1.4 2.4z"/></g><g id="XMLID_401_"><path id="XMLID_402_" class="st2" d="M106 95.6c10.6 2.1 20.9 6.2 30.6 10.8 1.8.9 3.5-1.4 1.6-2.3-9.9-4.7-20.5-9-31.4-11.1-2-.4-2.8 2.2-.8 2.6z"/></g><g id="XMLID_399_"><path id="XMLID_400_" class="st2" d="M123.4 194.3c9.2-10.7 22.5-19 36.1-24.9 1.8-.8.2-3.3-1.6-2.5-14.1 6.2-27.8 14.8-37.2 25.9-1.2 1.3 1.5 2.9 2.7 1.5z"/></g><g id="XMLID_397_"><path id="XMLID_398_" class="st2" d="M179.9 212c-2-5.8-3.8-12.5-2.6-18.4.4-1.7-2.7-2.6-3.1-.9-1.3 6.4.4 13.6 2.6 19.9.7 1.7 3.7 1.1 3.1-.6z"/></g><g id="XMLID_395_"><path id="XMLID_396_" class="st2" d="M278 185.1c-8.3-3.6-16.3-8.6-22.2-15-1.3-1.4-3.6.4-2.3 1.8 6 6.5 14.3 11.8 22.8 15.4 1.9 1 3.6-1.3 1.7-2.2z"/></g><g id="XMLID_393_"><path id="XMLID_394_" class="st2" d="M278.8 89.6c-7.7 6.7-19.9 10.3-30.3 13-1.9.5-1.1 3.2.8 2.7 10.9-2.8 23.6-6.5 31.7-13.6 1.4-1.2-.8-3.3-2.2-2.1z"/></g><g id="XMLID_391_"><path id="XMLID_392_" class="st2" d="M123.8 141.1c-6.1 1.5-10.4 4.4-11.2 10.2-.8 5.9 3.2 12.7.7 18.3-.4.9.6 1.7 1.5 1.8 3.8.5 7.6.5 11-.8 1.8-.7.3-3.2-1.6-2.5-2.9 1.1-6.3 1-9.5.5l1.5 1.8c4.1-9.5-7.9-22.8 8.2-26.7 2.1-.3 1.4-3.1-.6-2.6z"/></g><g id="XMLID_389_"><path id="XMLID_390_" class="st2" d="M116.3 170.9c3.4-4.4 6.8-8.8 9.8-13.4 1-1.5-1.7-3.1-2.7-1.6-3 4.6-6.4 9-9.8 13.4-1.2 1.4 1.6 3 2.7 1.6z"/></g><g id="XMLID_387_"><path id="XMLID_388_" class="st2" d="M152.2 171.2c3.1 5.9 4.6 13.7 3.7 19.3-.3 1.7 2.8 2.7 3.1.9 1.2-7.1-.4-14.8-4-21.5-.9-1.6-3.7-.4-2.8 1.3z"/></g><g id="XMLID_385_"><path id="XMLID_386_" class="st2" d="M143.7 175c.6 5.5-1.1 11.1-3 16.2-.6 1.7 2.4 2.6 3.1.9 2-5.3 3.7-11.2 3.1-16.9-.2-1.8-3.4-2-3.2-.2z"/></g><g id="XMLID_383_"><path id="XMLID_384_" class="st2" d="M151.4 170.9c-7.4-3.3-15.8-5-23.8-6.7-2-.4-2.9 2.2-.9 2.6 7.6 1.6 15.9 3.3 23 6.4 1.9.9 3.6-1.4 1.7-2.3z"/></g><g id="XMLID_381_"><path id="XMLID_382_" class="st2" d="M136 180.1c-4.3-1.1-9.1-1.5-13.2-.2-1.9.6-.3 3.1 1.6 2.5-.7.2.5-.1.7-.1l2.1-.3c2.7-.2 5.4.1 8 .8 1.9.4 2.8-2.2.8-2.7z"/></g><g id="XMLID_379_"><path id="XMLID_380_" class="st2" d="M175.9 196.1c5.6.8 11.2 3.2 15.6 6.6 1.6 1.2 3.9-.6 2.3-1.8-5.1-3.9-11.3-6.6-17.8-7.5-2.1-.3-2.1 2.5-.1 2.7z"/></g><g id="XMLID_377_"><path id="XMLID_378_" class="st2" d="M175.1 195.4c-4.2 1.1-8.2 3.4-10.6 6.7-1.1 1.5 1.7 3.1 2.7 1.6 1.9-2.7 5.2-4.6 8.6-5.5 2-.5 1.2-3.3-.7-2.8z"/></g><g id="XMLID_375_"><path id="XMLID_376_" class="st2" d="M173.4 186.5c-3.6-.1-7 2.8-9.4 4.8-2.3 1.9-4.5 3.9-6.6 5.9-1.3 1.3.9 3.4 2.2 2.1 1.6-1.6 3.3-3.2 5.1-4.7 2-1.7 5.5-5.4 8.6-5.3 2.1.1 2.1-2.7.1-2.8z"/></g><g id="XMLID_373_"><path id="XMLID_374_" class="st2" d="M257.7 173.5c2.7-3.4 7.5-5.8 12.6-5.1 2 .3 2-2.5 0-2.8-6.1-.8-12 2.2-15.3 6.3-1.1 1.5 1.6 3.1 2.7 1.6z"/></g><g id="XMLID_371_"><path id="XMLID_372_" class="st2" d="M257.4 174.1c-3 3.4-3.3 8.4-2.3 12.6.4 1.8 3.5 1.2 3.1-.6-.8-3.6-.5-7.7 2-10.5 1.1-1.4-1.6-2.9-2.8-1.5z"/></g><g id="XMLID_369_"><path id="XMLID_370_" class="st2" d="M261.9 178.1c-.9 3.1-.4 6.6.7 9.7.6 1.7 3.7 1.2 3.1-.6-.9-2.6-1.5-5.6-.8-8.2.5-1.8-2.6-2.7-3-.9z"/></g><g id="XMLID_367_"><path id="XMLID_368_" class="st2" d="M268.4 182.6c1.5-.8 3.7-.9 5.5-.9 2 0 2.1-2.8 0-2.8-2.3 0-5.2.1-7.1 1.2-1.6.9-.1 3.4 1.6 2.5z"/></g><g id="XMLID_365_"><path id="XMLID_366_" class="st2" d="M123 159.1c1.2.8 2 2.2 2.6 3.4.4.7.8 1.5 1 2.1.7 1.7 3.8 1.2 3.1-.6-1.1-2.6-2.6-5.4-5.1-7.2-1.6-1.2-3.2 1.2-1.6 2.3z"/></g><g id="XMLID_363_"><path id="XMLID_364_" class="st2" d="M120.1 161.9c1.1 2.4 1.3 5.3 1.5 7.8.1 1.8 3.3 2 3.2.2-.2-3.1-.5-6.3-1.9-9.2-.8-1.8-3.5-.5-2.8 1.2z"/></g><g id="XMLID_361_"><path id="XMLID_362_" class="st2" d="M123.9 157.9c-3.1-1.3-6.9-.8-10-.1-1.9.4-1.2 3.2.8 2.7 2.1-.5 5.4-1.2 7.5-.3 1.9.8 3.6-1.5 1.7-2.3z"/></g><g id="XMLID_359_"><path id="XMLID_360_" class="st2" d="M121.7 147.7c-2.8-.5-6 1-8.4 2.1-1.8.8-.2 3.3 1.6 2.5 1.9-.9 4.5-2.2 6.8-1.8.9.1 1.6-.6 1.6-1.3 0-.8-.7-1.3-1.6-1.5z"/></g><g id="XMLID_357_"><path id="XMLID_358_" class="st2" d="M254.6 102.5c3.7 4.8 10.3 7.7 16.4 9.3 2 .5 2.8-2.1.9-2.6-5.2-1.4-11.3-3.8-14.5-7.9-1.2-1.5-4-.3-2.8 1.2z"/></g><g id="XMLID_355_"><path id="XMLID_356_" class="st2" d="M261.3 100.8c.1-2.9 1.7-5.8 3.7-8.1 1.2-1.4-1.5-2.9-2.7-1.6-2.3 2.7-4 6-4.1 9.5-.2 1.8 3 1.9 3.1.2z"/></g><g id="XMLID_353_"><path id="XMLID_354_" class="st2" d="M254.1 103.1c-.5-4 .9-8.2 2.8-11.8.8-1.6-1.9-3.2-2.7-1.6-2.1 4-3.9 8.6-3.3 13.2.2 1.8 3.4 1.9 3.2.2z"/></g><g id="XMLID_351_"><path id="XMLID_352_" class="st2" d="M269.7 97.6c2.5 1.7 6 2.4 9 2.6 2 .2 2.1-2.6 0-2.8-2.5-.2-5.3-.7-7.4-2.2-1.6-1.1-3.2 1.2-1.6 2.4z"/></g><g id="XMLID_349_"><path id="XMLID_350_" class="st2" d="M132.1 103.2c-1.6 4.2-4.8 9.4-8.7 11.6-1.7.9-.1 3.5 1.6 2.5 5.2-2.9 8.3-8.2 10.2-13.2.6-1.7-2.4-2.6-3.1-.9z"/></g><g id="XMLID_347_"><path id="XMLID_348_" class="st2" d="M129.9 101.4c-.5-4.6-2.9-9.2-6.3-12.8-1.3-1.4-3.6.4-2.3 1.8 2.9 3 4.9 7 5.4 10.8.2 1.8 3.4 2 3.2.2z"/></g><g id="XMLID_345_"><path id="XMLID_346_" class="st2" d="M122.6 98c-1.2-2.9-3.4-6.2-6.9-7.4-1.9-.7-2.8 1.9-.9 2.6l.2.1c.4.2.8.5 1.2.8 1.5 1.2 2.6 2.8 3.3 4.5.7 1.6 3.8 1.1 3.1-.6z"/></g><g id="XMLID_343_"><path id="XMLID_344_" class="st2" d="M123.9 99.8c-.6 1.6-3.1 2.9-4.5 3.9-1.2.9-2.5 1.7-3.8 2.5-1.6 1 .6 3.1 2.2 2.1 1.5-.9 3-1.9 4.5-3 1.7-1.2 3.9-2.7 4.7-4.6.7-1.7-2.4-2.6-3.1-.9z"/></g><g id="XMLID_341_"><path id="XMLID_342_" class="st2" d="M138.6 99.2c-.6-3.8-2.3-7.7-4.1-11.3-.8-1.7-3.6-.4-2.8 1.2 1.7 3.4 3.3 7 3.8 10.6.3 1.8 3.4 1.2 3.1-.5z"/></g><g id="XMLID_73_"><g id="XMLID_339_"><path id="XMLID_340_" class="st3" d="M167.1 113.6c-6.6 14-14.9 35.2 5.8 44.8 19.6 9 41.5 2 50.8-14.1.9-1.6-1.8-3.1-2.7-1.6-8.7 15-29.5 22-47.7 12.7-17.9-9.2-9-28.7-3.2-41 .9-1.5-2.2-2.4-3-.8z"/></g><g id="XMLID_337_"><path id="XMLID_338_" class="st3" d="M220.2 104.2c3.5-7.1 5.5-17.3-3.5-22.6-4.9-2.9-10.9-3.6-16.3-2.6-2 .4-4 1-5.9 1.9-1 .5-3.2 1.1-1.5.9-8.2.6-20.2-2-19.4 8.9.1.9.8 2.9.4 3.7-.4.7-1.1.4-1.9.9-2.2 1.4-3.7 2.6-5 4.8-2 3.3-2 6.3-1.2 9.9 2.4 10.7 6.3 21.1 8.7 31.7.4 1.6 3.1 1.3 3.1-.2.3-5.9 5.2-10.5 11.5-12.1 5-1.2 10.2-2.1 15.2-3.3 6-1.3 10.7-1.3 15.5 2.8 1.5 1.3 3.8-.5 2.3-1.8-3.8-3.4-7.9-5.1-13.2-4.7-3.6.3-7.1 1.4-10.6 2.2-3.8.9-8 1.3-11.7 2.4-6.8 2.1-11.9 7.7-12.2 14.2 1-.1 2.1-.1 3.1-.2-2.1-9.4-5.3-18.6-7.7-27.9-1.2-4.7-2.8-9.3 1-13.3 3.5-3.7 6.5-1.8 6.1-7.2-.4-4.3.1-7.4 5.8-8.3 3-.5 5.8 0 8.7 0 2.6 0 3.1-.6 5.6-1.6 7.2-2.8 19.1-2 22.2 5.9 1.9 4.7-.2 10.2-2.3 14.4-.7 1.9 2.4 2.8 3.2 1.2z"/></g><g id="XMLID_335_"><path id="XMLID_336_" class="st3" d="M217.8 125.8c4.9-5.9 5.7-15.8 2.7-22.8-2.9-6.9-10.4-10-18.4-9.4-19.8 1.6-25.4 21.8-18.7 36.4.8 1.7 3.5.4 2.8-1.2-5.5-12-1.8-29.1 14-32 7.7-1.4 15.3 1.1 17.8 8.3 2 6.1 1.2 14.2-2.9 19.2-1.2 1.4 1.5 2.9 2.7 1.5z"/></g><g id="XMLID_333_"><path id="XMLID_334_" class="st3" d="M194.8 95.1c-2.8 5.1-.5 9.5 3.6 13.7 2.4 2.5 4.5 4.3 5 7.7.5 2.6.4 5.4.2 8-.1 1.8 3 1.9 3.2.2.3-4 .6-9.1-1.7-12.9-3.1-5.1-11.2-8.6-7.6-15.2.9-1.5-1.9-3.1-2.7-1.5z"/></g><g id="XMLID_331_"><path id="XMLID_332_" class="st3" d="M205.5 114.8c3-2.6 6.6-3.5 10.5-4.6 2.6-.8 4.7-1.9 5.6-4.3.6-1.7-2.4-2.6-3.1-.9-.9 2.4-4.3 2.7-6.7 3.4-3.3.9-6.1 2.2-8.5 4.3-1.4 1.2.8 3.4 2.2 2.1z"/></g><g id="XMLID_329_"><path id="XMLID_330_" class="st3" d="M178.3 138.6c8.8-11.5 28.9 2.5 39.8 5.8 10.2 3.1 17.7-3.2 16.1-12.4-.4.5-.8 1.1-1.1 1.6 4.9-1.5 10.5-4.5 11.6-9.3.6-2.9-.6-6-2.3-8.6-.6-1-1.3-2-2.2-2.9-1-1-.9-1.3-.7-.4-.8-3.2-.2-5.9-2.5-8.9-3.9-5-10.8-5.4-16.9-5-2 .1-1.2 2.9.8 2.7 5.8-.4 12.3.3 14.7 5.8.8 1.8.2 3.7.8 5.4.6 1.9 2.6 3.3 3.7 5.1 3.8 6.5-.9 11.4-7.6 13.4-.9.3-1.3.8-1.1 1.6 1.1 5.8-3.1 11.2-10.2 9.7-5.8-1.2-11.3-4.3-16.7-6.5-9.6-3.9-21.8-7.6-28.6 1.3-1.5 1.5 1.2 3.1 2.4 1.6z"/></g><g id="XMLID_327_"><path id="XMLID_328_" class="st3" d="M182 159.8c-5.3 12.7-21.3 8.5-32.3 3.4-9.8-4.6-19.9-7.6-30.8-8.7l1.5 1.8c4.3-9.4 7.9-19.3 9.8-29.5 2.5-13.2 21-25 36.2-16.8 1.8 1 3.4-1.4 1.6-2.3-13.2-7.1-30.7-.6-37.8 9.9-4.3 6.4-4.4 15.1-6.8 22.2-1.8 5.3-3.8 10.5-6.1 15.6-.4.9.6 1.7 1.5 1.8 6.8.7 13.7 2.1 20.2 4.3 6.6 2.3 12.5 5.9 19.3 7.9 11.5 3.3 22.4 1.6 26.8-8.8.7-1.6-2.4-2.5-3.1-.8z"/></g><g id="XMLID_325_"><path id="XMLID_326_" class="st3" d="M161.6 138.1c-7.8-2.5-16.8-1.2-22.4 3.9-1.4 1.2.8 3.4 2.2 2.1 4.9-4.4 12.6-5.5 19.4-3.3 1.9.6 2.8-2.1.8-2.7z"/></g><g id="XMLID_323_"><path id="XMLID_324_" class="st3" d="M161.5 132.9c-3.6-.6-7.6-1.4-11.3-1.1-2 .2-1.2 2.9.8 2.7 3.3-.3 7.1.6 10.4 1.1 2.1.4 2.1-2.4.1-2.7z"/></g><g id="XMLID_321_"><path id="XMLID_322_" class="st3" d="M232.4 138.9c15.8 1.6 26.1 17.3 21.4 30.2-2.3 6.3-9.2 11.5-16.5 13.3-2.4.6-5.6 0-7.9.8-1.4.5-4.2 3.3-6.1 4.3-6.3 3.3-13.7 4.3-21.2 3.8-8.1-.6-19.7-2.7-27.2.7.7.2 1.4.4 2.2.6-3.6-7.7-7.5-15.2-9.9-23.2-.5-1.8-3.6-1.2-3.1.6 2.5 8.3 6.5 15.9 10.2 23.9.3.7 1.5.9 2.2.6 3.5-1.6 8.5-1.3 12.3-1.3 9.5.1 18.9 2.1 28.2-.2 4.8-1.2 9.8-3.3 13.3-6.5.3-.3.7-.7 1.1-1 1.3-.9-1.6.3-.7.2 1.5-.1 3 .1 4.5-.1 13.5-1.6 23.7-12.4 22.8-24.4-.9-12.5-11-23.6-25.6-25.1-2-.2-2 2.6 0 2.8z"/></g><g id="XMLID_316_"><path id="XMLID_320_" class="st3" d="M237.7 107c5.7-4.5 16.5 2.9 21.8 5.8 3.5 1.9 9.1 6.1 13.5 5l-1.8-2.1c-4.8 5.1-5.8 11.6-4.7 18.2 1.8 11.2 1.8 20.5-10.9 25.9-1.8.8-.2 3.3 1.6 2.5 9.2-3.9 14-10.4 13.6-19.6-.3-9.1-4.2-17.7 3.1-25.4.9-.9-.5-2.4-1.8-2.1-2.8.7-7.1-2.4-9.4-3.7-3.6-2-7.2-4-11-5.7-5.2-2.3-11.6-4.4-16.3-.7-1.4 1 .9 3.1 2.3 1.9z"/></g><g id="XMLID_314_"><path id="XMLID_315_" class="st3" d="M200.7 81.3c5.5-12.6 24.8-1.5 34.4-7.3-.9-.5-1.8-1-2.6-1.5-4.6 12 15.1 21.4 15 33.3 0 1.8 3.2 2 3.2.2.1-6.2-4.1-11.8-8.1-16.8-3.5-4.4-9.1-10.1-7-15.8.5-1.4-1.5-2.2-2.6-1.5-2.4 1.5-7 .6-9.8.5-3.7-.2-7.3-.4-11-.1-6.5.5-12 2.6-14.4 8.1-.9 1.6 2.1 2.5 2.9.9z"/></g><g id="XMLID_312_"><path id="XMLID_313_" class="st3" d="M203.5 76.1c-9.9-14.2-38.4-16.7-48.1-2.6-1.3 1.8-2 3.9-3.1 5.7-1.3 2.1-2.5 2.5-4.8 3.6-2.9 1.3-5.2 3.2-7.1 5.5-5.4 6.7-6.7 15.4-1.9 23 1 1.6 3.8.4 2.8-1.2-4.7-7.5-2.6-16.7 3.9-22.4 3.7-3.2 7.5-2.6 9.9-7.2 4.5-8.3 9.9-13.3 20.9-13.5 9.3-.1 19.5 2.8 24.7 10.3 1.1 1.7 3.8.4 2.8-1.2z"/></g><g id="XMLID_310_"><path id="XMLID_311_" class="st3" d="M218.4 122.2c3.1.4 6.8 2 8.9 3.6 1.6 1.2 3.9-.6 2.3-1.8-3.2-2.4-7.1-4-11.2-4.6-2-.3-2 2.5 0 2.8z"/></g><g id="XMLID_308_"><path id="XMLID_309_" class="st3" d="M209.6 156.2c3.5 4.4 5 10.1 4.2 15.3-.3 1.8 2.9 1.9 3.2.2.8-5.6-.8-11.9-4.6-16.7-1.2-1.6-4-.3-2.8 1.2z"/></g><g id="XMLID_175_"><path id="XMLID_176_" class="st3" d="M214.3 153c2.8 2.1 4.1 5.9 5 8.9.5 1.8 3.6 1.2 3.1-.6-1-3.4-2.6-7.8-5.8-10.2-1.6-1.2-3.9.7-2.3 1.9z"/></g><g id="XMLID_167_"><path id="XMLID_168_" class="st3" d="M232.8 135.9c6.6 1.1 15.5.1 18.1-6.1.7-1.7-2.4-2.5-3.1-.9-.1.3.2-.2 0 0-.2.3-.3.5-.5.8-.6.8-1.3 1.4-2.1 2-3.5 2.3-8.2 2.1-12.4 1.5-2-.4-2 2.4 0 2.7z"/></g><g id="XMLID_161_"><path id="XMLID_162_" class="st3" d="M225.4 99.8c-.2-4.9 2.4-10 4.6-14.3.8-1.6-1.9-3.2-2.7-1.6-2.4 4.7-5.3 10.3-5.1 15.7.1 1.8 3.3 2 3.2.2z"/></g><g id="XMLID_159_"><path id="XMLID_160_" class="st3" d="M223.1 92c.4-1.9.8-3.7 1.2-5.6.4-1.7-2.6-2.6-3.1-.9-.4 1.9-.8 3.7-1.2 5.6-.3 1.8 2.7 2.7 3.1.9z"/></g><g id="XMLID_149_"><path id="XMLID_150_" class="st3" d="M169.5 98.5c-5.1-1-9.9-3.7-13.6-7-1.5-1.3-3.8.5-2.3 1.8 4.1 3.6 9.4 6.7 15 7.8 2.1.4 3-2.2.9-2.6z"/></g><g id="XMLID_147_"><path id="XMLID_148_" class="st3" d="M172.6 95.6c-3.4-1.1-6.7-2.9-9.4-5-1.6-1.2-3.8.6-2.3 1.8 3.2 2.5 6.9 4.5 10.9 5.8 1.9.6 2.8-2 .8-2.6z"/></g><g id="XMLID_145_"><path id="XMLID_146_" class="st3" d="M175.8 94.3c-1.1-.5-2.2-1.1-3.1-1.9-.3-.3-.6-.5-.8-.8-.1-.1-.5-.6-.2-.2-.5-.6-1.3-1-2.2-.6-.7.3-1.1 1.2-.6 1.9 1.5 1.9 3.6 3.3 6 4.3 2 .7 2.8-2 .9-2.7z"/></g><g id="XMLID_135_"><path id="XMLID_136_" class="st3" d="M187.8 104c.6-3.7-.8-7.7-3.7-10.7-1.4-1.4-3.6.4-2.3 1.8 2.1 2.1 3.4 5.2 2.9 7.9-.3 1.9 2.8 2.8 3.1 1z"/></g><g id="XMLID_133_"><path id="XMLID_134_" class="st3" d="M191.7 100.2c1.6-2.5 2.2-5.6 2.2-8.5 0-1.8-3.1-2-3.2-.2-.1 2.4-.5 5-1.8 7.1-.8 1.6 1.9 3.1 2.8 1.6z"/></g><g id="XMLID_74_"><path id="XMLID_100_" class="st3" d="M219.9 120.1c1.8-.3 3.9.3 5.6.8 2 .5 2.8-2.1.9-2.6-2.3-.6-4.9-1.2-7.3-.9-2 .2-1.2 3 .8 2.7z"/></g></g></g><text id="XMLID_413_" transform="matrix(1.8561 0 0 2 50.18 159.838)" class="st2 st4 st5">D</text><g><text transform="matrix(2.067 0 0 2 286.568 154.738)" class="st2 st4 st6">G</text></g></svg>