<svg id="Layer_1" xmlns="http://www.w3.org/2000/svg" viewBox="0 0 792 612"><style>.st0{fill:#383736}.st1{fill:#fff}.st2{fill:#007094}.st3{font-family:&amp;apos;Nickainley-Normal&amp;apos;}.st4{font-size:45.5796px}.st5{font-size:39.5084px}</style><switch><g><path class="st0" d="M200 286.3V239c0-2.2-.1-4.4.1-6.6.4-3 2.1-4.8 5.4-5.2 3.4-.4 6.9-.2 10.4-.2 13.5-.1 27 0 40.5 0 1.7 0 3.4 0 5.1.1 3.6.2 6.7-1 9.7-2.8 5-3 9.6-6.7 14.8-9.4 5.2-2.8 9.8-6.6 15.1-9.3 4.1-2.1 7.5-5.2 11.7-7.2 4.1-2 7.9-4.7 11.8-7.2 1.7-1.1 3.2-2.6 5.1-3.4 3.1-1.2 5.4-3.6 8.4-4.9 6.1-2.7 11.4-6.6 17-10.1 3.2-2 6.5-3.8 9.5-6.1 2.6-1.9 5.5-3.2 8.2-4.9 4.9-3.1 9.7-6.2 14.6-9.2 2.6-1.7 5.2-3.5 8.2-4.7 1.5-.5 2.7-.5 4 .2 5.6 3.1 10.9 6.5 16.1 10.1.5.3 1 .7 1.6.9 4.5 1.6 8.1 4.5 12 7 5.9 3.8 11.7 7.7 17.8 11.2 1.4.8 2.4 2.1 4 2.7 3.8 1.4 6.6 4 10 6.1 1.9 1.1 3.7 2.3 5.6 3.5 2.5 1.5 5 2.9 7.2 4.7.4.3.8.6 1.3.8 4.2 1.7 8 4.2 11.5 6.7 4.3 3.1 9.1 5.5 13.3 8.7 2.6 2 5.6 3.6 8.5 5.2 5.3 2.9 10.2 6.6 15.6 9.3 2.3 1.2 4.6 1.9 7.2 1.9 16.9 0 33.8 0 50.7.1 1.6 0 3.3 0 4.9-.1 4.2-.1 7 2.4 7 6.3 0 21.1.1 42.2 0 63.3-.1 8.8-.1 17.6-.1 26.4 0 4.6.2 9.3.2 13.9v2.8c-.4 4.5-2.9 6.7-7.7 6.7-9.9 0-19.8-.1-29.7-.1-6.9 0-13.7.1-20.6.1-2.9 0-5.7.7-7.9 2.5-2.1 1.7-4.6 2.9-6.9 4.2-5.2 2.9-10.2 6.2-15.4 9.3-3.9 2.3-7.7 4.9-12 6.8-2.9 1.4-5.7 3.3-8.5 5.2-2.5 1.7-5.1 3.3-7.9 4.6-2.6 1.2-4.9 2.8-7.2 4.5-2.3 1.6-4.9 2.7-7.2 4.3-1.9 1.3-4 2.3-5.8 3.8-.8.7-1.9 1.3-3 1.3-1.4 0-2 1.2-3 1.7-2.7 1.5-5.5 3-8 4.7-2.4 1.6-4.7 3.3-7.2 4.7-5 2.9-10.1 5.6-15.1 8.5-1.7 1-3.1 2.4-4.9 3.1-4.1 1.8-7.3 4.7-11.2 6.8-1.8 1-3.5 1.9-5.4 2.7-1.7.8-3.4.7-5.1-.1-4.1-1.9-8.1-4-11.5-6.9-.8-.7-1.6-1.3-2.6-1.8-4.1-1.9-7.6-4.9-12-6.5-.9-.3-1.7-.8-2.5-1.4-6.2-4.4-13-8-19.6-11.9-1.5-.9-2.7-2.2-4.3-2.9-2.9-1.2-5.3-3.1-7.9-4.7-5-3.1-10.4-5.7-15.3-8.9-3-2-5.9-4.3-9.5-5.3-1-.3-1.5-1.3-2.3-1.8-4.2-2.5-8.1-5.4-12.6-7.4-1.3-.6-2.2-1.8-3.6-2.4-8.3-3.9-15.7-9.3-23.6-13.9-3.5-2.1-7-3.2-11.3-3.1-16.4.2-32.8.1-49.1.1-3 0-5.8-1.8-6.3-4.1-.2-1.2-.3-2.5-.3-3.8v-29.3-22.6z"/><path class="st0" d="M475.5 249.3v.8c-.1.5.2 1.1-.5 1.4-.3.1-.6-.1-.6-.4-.2-.6-.2-1.3.6-1.6.1-.1.3-.1.5-.2zM533.7 284.8v-.8c0-.4-.1-1 .4-1.2.3-.1.5.1.6.4.2.6.3 1.1-.4 1.5-.2 0-.4 0-.6.1zM550.7 282.3v1.3H549c.3-.8.7-1.4 1.7-1.3zM540.1 285.2c0 .1.2.2.1.2 0 .2-.2.3-.4.1-.1 0-.1-.2 0-.3.1.1.2.1.3 0zM478.3 236c.1.7.6 1.2 1.4 1.3v1.3c-.4 0-.9.1-1.3.1-3.1.2-3.1.2-2.8-2.6.8-.1 1.7-.1 2.7-.1z"/><path class="st0" d="M479.6 238.6c.2 0 .3 0 .5.1.4.1.8.1.9.6 0 .2-.1.4-.3.5-.6.1-.8-.2-.9-.7-.1-.3-.2-.4-.2-.5zM559.2 283.5c.9 0 1.3.5 1.4 1.3-1 0-1.5-.4-1.4-1.3zM550.7 282.3c.1-.4-.1-1 .6-1.1.1 0 .2.1.2.2.2.7-.5.6-.8.9zM401.7 200.3c.5 0 1 0 1.5.1s1.3.1 1.1.8c-.2.8-.9.6-1.5.5-.8-.2-.9-.9-1.1-1.4 0-.1 0 0 0 0zM406.2 200.2h-.7c-.3 0-.7-.2-.7-.5 0-.2.1-.4.4-.4.4-.1.6.1.8.4.1.2.1.4.2.5zM528.8 310.5c0 .3-.2.4-.4.4s-.5-.1-.5-.3c0-.3.2-.4.4-.4s.4.1.5.3zM475.5 298.1v-1.3c.9.1 1.3.5 1.4 1.3h-1.4zM399 243.9h1.4c-.1.5-.1 1-.8 1-.5-.1-.5-.6-.6-1zM433.6 239.6c-.2-.1-.4-.2-.4-.4 0-.3.2-.5.6-.4.2.1.4.2.3.5 0 .2-.2.3-.5.3zM424.5 224h1.4c-.1.4-.1.9-.6 1-.7 0-.6-.6-.8-1zM410.2 263.9c1-.1 1.4.4 1.4 1.3-.8-.1-1.4-.5-1.4-1.3zM476.9 284.8c-.8-.1-1.3-.5-1.4-1.3.9 0 1.3.5 1.4 1.3zM413 226.8c-.1.4-.1.9-.6 1-.7.1-.7-.5-.8-1h1.4zM502.4 280.9v1c-.3-.1-.8-.1-.8-.4-.1-.5.5-.4.8-.6zM447.3 237.3c-1.1-.1-2.1.1-2.9.9-.4.4-1 .4-1.6.3-.4-1.3 1.5-1.4 1.4-2.6 1.2.3 2.8-.5 3.1 1.4zM448.6 323h1.1c-.1.3 0 .8-.5.8s-.5-.4-.6-.8zM433 251.8c.9 0 1.4.5 1.4 1.3-.8 0-1.4-.4-1.4-1.3zM370.8 241.4c.8.1 1.2.6 1.4 1.3-.8-.2-1.3-.5-1.4-1.3z"/><g id="XMLID_2_"><g id="XMLID_128_"><path id="XMLID_129_" class="st1" d="M457.1 233.9c5.4-4.6 17.7-.5 24.2.5 7.7 1.2 15.4 1.7 22.2-1.6-1-.5-2-1.1-3-1.6.8 11.5-6.9 21.7-18 27.1-2.2 1.1-.2 4.1 2 3.1 12.3-5.9 20.9-17.2 20-30-.1-1.2-1.6-2.3-3-1.6-8.8 4.3-19.7 1.2-29.2-.3-6.1-1-13.3-2.1-18 1.9-1.7 1.5 1.1 4.1 2.8 2.5z"/></g><g id="XMLID_126_"><path id="XMLID_127_" class="st1" d="M328.2 229.5c-7.8-3.1-15.6-3.3-23.5-1.4-6.6 1.6-13.1 5.6-20.1 5.9-1.5.1-2.8 1.7-1.4 2.8 12.1 9.9 14.5 26.1 31.7 31.2 2.5.7 3.5-2.5 1.1-3.2-15.7-4.7-18.6-20.9-29.9-30.2-.5.9-1 1.9-1.4 2.8 5.3-.2 10-2.5 14.7-4.1 9.1-3.1 18.2-4.4 27.8-.6 2.3 1 3.4-2.2 1-3.2z"/></g><g id="XMLID_124_"><path id="XMLID_125_" class="st1" d="M320.6 314.2c-8.7 3.4-14 8.9-15.4 17.1-1.4 7.8 2.4 18.3-2.7 25-1 1.4 1 3.3 2.7 2.5 4.6-2.2 10.3-4 15.8-3.8 6.4.2 11.9 2.6 18.4 2.3 11-.5 22.5-4.5 27.3-13.2 1.1-1.9-2.4-3.9-3.4-1.9-5.7 10.4-22.2 13.7-34.8 10.8-8.9-2.1-17.4-.9-25.2 2.9.9.8 1.8 1.7 2.7 2.5 3.7-4.9 2.9-11.2 2.8-17-.2-10.7 1.7-19.3 13.8-24 2.3-1 .3-4.1-2-3.2z"/></g><g id="XMLID_122_"><path id="XMLID_123_" class="st1" d="M344.2 354.2c-2.3 13.3 22.3 17.3 29.1 26.8.8 1.1 2.6 1.3 3.4.2 1.8-2.4 3.8-4.7 6.2-6.6 3.3-2.9 7.5-3.6 11.2-5.7 4.6-2.6 6.9-8.1 7.8-12.6.4-2.1-3.4-3.2-3.8-1.1-.4 1.8-1 3.6-1.8 5.2-2.3 4.7-6.2 5.6-10.9 8-5 2.5-9 6.8-12.1 10.9 1.1.1 2.3.1 3.4.2-3.3-4.6-8.2-7.6-13.4-10.5-5.3-2.9-16.5-7.2-15.4-13.7.5-2.2-3.4-3.3-3.7-1.1z"/></g><g id="XMLID_120_"><path id="XMLID_121_" class="st1" d="M479.7 314.9c7.8 4.7 9.7 13.8 11.8 21 1.3 4.4 2.2 10.3 6.3 13.6v-2.4c-1.3 1.1-5.7 1.3-7.9 1.4-11.9.2-24.2-3-35.6-6.1-2.5-.7-3.6 2.6-1.1 3.2 12.3 3.3 25.9 6.9 38.7 6.2 2.8-.2 6.6-.4 8.7-2.1.7-.6.9-1.7 0-2.4-5.2-4.3-5.6-14-7.6-19.6-2.1-6-5-11.9-11.3-15.7-2.1-1.2-4.2 1.6-2 2.9z"/></g><g id="XMLID_118_"><path id="XMLID_119_" class="st1" d="M284.1 237.4c13.3 2.6 26.3 7.6 38.4 13.3 2.3 1.1 4.4-1.8 2.1-2.8-12.4-5.8-25.7-11-39.4-13.7-2.5-.5-3.6 2.7-1.1 3.2z"/></g><g id="XMLID_116_"><path id="XMLID_117_" class="st1" d="M306 358.3c11.5-13.1 28.2-23.3 45.3-30.6 2.3-1 .3-4-2-3.1-17.7 7.6-34.9 18.2-46.8 31.7-1.4 1.8 2 3.7 3.5 2z"/></g><g id="XMLID_114_"><path id="XMLID_115_" class="st1" d="M377 379.9c-2.5-7.1-4.8-15.3-3.2-22.5.5-2.1-3.4-3.2-3.8-1.1-1.7 7.9.5 16.7 3.2 24.3.7 2.1 4.5 1.4 3.8-.7z"/></g><g id="XMLID_112_"><path id="XMLID_113_" class="st1" d="M500.2 347c-10.4-4.4-20.4-10.5-27.8-18.3-1.7-1.8-4.5.5-2.9 2.2 7.6 8 18 14.4 28.6 18.9 2.4 1.1 4.4-1.8 2.1-2.8z"/></g><g id="XMLID_110_"><path id="XMLID_111_" class="st1" d="M501.2 230c-9.7 8.3-25 12.6-38.1 15.9-2.4.6-1.4 4 1 3.3 13.7-3.5 29.6-8 39.9-16.7 1.7-1.4-1-4-2.8-2.5z"/></g><g id="XMLID_108_"><path id="XMLID_109_" class="st1" d="M306.5 293.1c-7.7 1.8-13 5.4-14 12.6-1 7.3 4 15.5.9 22.4-.5 1.1.7 2.1 1.9 2.3 4.7.6 9.6.6 13.9-1 2.3-.9.3-3.9-2-3.1-3.6 1.4-7.9 1.2-11.9.7.6.8 1.3 1.5 1.9 2.3 5.1-11.6-9.9-27.9 10.3-32.7 2.4-.7 1.4-4.1-1-3.5z"/></g><g id="XMLID_106_"><path id="XMLID_107_" class="st1" d="M297 329.5c4.3-5.4 8.5-10.8 12.3-16.4 1.3-1.9-2.2-3.8-3.4-1.9-3.8 5.6-8 11.1-12.3 16.4-1.4 1.8 2 3.7 3.4 1.9z"/></g><g id="XMLID_104_"><path id="XMLID_105_" class="st1" d="M342.1 329.9c3.9 7.2 5.8 16.8 4.6 23.7-.4 2.1 3.5 3.2 3.8 1.1 1.5-8.7-.5-18.1-5-26.3-1-2-4.5-.5-3.4 1.5z"/></g><g id="XMLID_102_"><path id="XMLID_103_" class="st1" d="M331.5 334.6c.7 6.7-1.3 13.6-3.7 19.8-.8 2.1 3 3.1 3.8 1.1 2.5-6.5 4.6-13.7 3.9-20.7-.2-2.2-4.2-2.4-4-.2z"/></g><g id="XMLID_99_"><path id="XMLID_101_" class="st1" d="M341.2 329.6c-9.3-4-19.9-6.2-29.9-8.3-2.5-.5-3.6 2.7-1.1 3.2 9.6 2 19.9 4 28.9 7.9 2.3 1.1 4.4-1.7 2.1-2.8z"/></g><g id="XMLID_97_"><path id="XMLID_98_" class="st1" d="M321.8 340.8c-5.4-1.4-11.4-1.8-16.6-.3-2.4.7-.4 3.8 2 3.1-.9.3.6-.1.8-.2.9-.2 1.8-.3 2.7-.4 3.4-.3 6.7.1 10 1 2.5.7 3.6-2.6 1.1-3.2z"/></g><g id="XMLID_95_"><path id="XMLID_96_" class="st1" d="M371.9 360.5c7 .9 14.1 4 19.6 8 2 1.5 4.9-.8 2.9-2.2-6.4-4.7-14.2-8.1-22.4-9.2-2.6-.3-2.6 3.1-.1 3.4z"/></g><g id="XMLID_93_"><path id="XMLID_94_" class="st1" d="M370.9 359.6c-5.3 1.3-10.3 4.1-13.3 8.2-1.3 1.8 2.1 3.7 3.4 1.9 2.4-3.3 6.6-5.7 10.9-6.7 2.4-.6 1.5-4-1-3.4z"/></g><g id="XMLID_91_"><path id="XMLID_92_" class="st1" d="M368.8 348.7c-4.6-.1-8.7 3.4-11.8 5.8-2.9 2.3-5.7 4.7-8.2 7.3-1.6 1.6 1.1 4.2 2.8 2.6 2-2 4.2-3.9 6.4-5.8 2.5-2.1 6.9-6.6 10.8-6.5 2.5.1 2.5-3.3 0-3.4z"/></g><g id="XMLID_89_"><path id="XMLID_90_" class="st1" d="M474.7 332.8c3.4-4.2 9.5-7.1 15.8-6.3 2.5.3 2.6-3.1 0-3.4-7.7-1-15.1 2.7-19.2 7.8-1.4 1.8 2 3.7 3.4 1.9z"/></g><g id="XMLID_87_"><path id="XMLID_88_" class="st1" d="M474.2 333.5c-3.8 4.2-4.2 10.2-2.9 15.5.5 2.2 4.4 1.5 3.9-.7-1-4.4-.6-9.4 2.5-12.8 1.5-1.8-2-3.7-3.5-2z"/></g><g id="XMLID_85_"><path id="XMLID_86_" class="st1" d="M479.9 338.4c-1.1 3.8-.5 8.1.9 11.9.8 2.1 4.6 1.4 3.9-.7-1.2-3.2-1.9-6.9-.9-10.1.5-2.2-3.3-3.3-3.9-1.1z"/></g><g id="XMLID_83_"><path id="XMLID_84_" class="st1" d="M488.1 343.9c1.9-1 4.7-1 6.9-1.1 2.5 0 2.6-3.4 0-3.4-2.9 0-6.5.1-8.9 1.4-2.1 1.2-.1 4.3 2 3.1z"/></g><g id="XMLID_81_"><path id="XMLID_82_" class="st1" d="M305.5 315.1c1.5 1 2.5 2.7 3.3 4.2.5.9 1 1.8 1.3 2.6.9 2.1 4.7 1.4 3.9-.7-1.3-3.2-3.2-6.7-6.4-8.9-2.1-1.4-4.1 1.4-2.1 2.8z"/></g><g id="XMLID_79_"><path id="XMLID_80_" class="st1" d="M301.9 318.5c1.4 2.9 1.6 6.5 1.9 9.6.2 2.2 4.2 2.4 4 .2-.3-3.7-.7-7.7-2.4-11.3-1-2.1-4.5-.5-3.5 1.5z"/></g><g id="XMLID_77_"><path id="XMLID_78_" class="st1" d="M306.6 313.6c-3.9-1.6-8.6-1-12.5-.1-2.4.6-1.4 3.9 1 3.3 2.6-.6 6.8-1.5 9.5-.4 2.3 1 4.4-1.8 2-2.8z"/></g><g id="XMLID_75_"><path id="XMLID_76_" class="st1" d="M303.9 301.2c-3.5-.6-7.6 1.2-10.5 2.6-2.2 1-.3 4.1 2 3.1 2.4-1.1 5.7-2.7 8.5-2.2 1.1.2 2-.8 2-1.6 0-1.1-1-1.7-2-1.9z"/></g><g id="XMLID_70_"><path id="XMLID_71_" class="st1" d="M470.7 245.8c4.7 5.8 12.9 9.5 20.6 11.4 2.5.6 3.6-2.6 1.1-3.2-6.5-1.7-14.1-4.7-18.2-9.7-1.5-1.8-5-.3-3.5 1.5z"/></g><g id="XMLID_68_"><path id="XMLID_69_" class="st1" d="M479.2 243.7c.2-3.6 2.2-7.1 4.6-9.9 1.5-1.7-1.9-3.6-3.4-1.9-2.9 3.3-5 7.4-5.2 11.6-.1 2.2 3.9 2.4 4 .2z"/></g><g id="XMLID_66_"><path id="XMLID_67_" class="st1" d="M470.1 246.5c-.7-4.9 1.2-10.1 3.6-14.4 1.1-1.9-2.3-3.9-3.4-1.9-2.7 4.8-4.9 10.6-4.1 16.1.2 2.1 4.2 2.4 3.9.2z"/></g><g id="XMLID_64_"><path id="XMLID_65_" class="st1" d="M489.8 239.7c3.1 2.1 7.5 2.9 11.3 3.2 2.6.2 2.6-3.2 0-3.4-3.1-.2-6.7-.9-9.3-2.6-2-1.4-4.1 1.5-2 2.8z"/></g><g id="XMLID_62_"><path id="XMLID_63_" class="st1" d="M317 246.6c-2 5.2-6 11.5-10.9 14.3-2.1 1.2-.2 4.2 2 3.1 6.5-3.6 10.5-10.1 12.8-16.2.7-2.1-3.2-3.2-3.9-1.2z"/></g><g id="XMLID_60_"><path id="XMLID_61_" class="st1" d="M314.1 244.5c-.7-5.6-3.6-11.2-7.9-15.6-1.7-1.7-4.6.5-2.9 2.2 3.6 3.7 6.2 8.5 6.8 13.2.3 2.1 4.3 2.4 4 .2z"/></g><g id="XMLID_58_"><path id="XMLID_59_" class="st1" d="M305 240.2c-1.6-3.6-4.3-7.6-8.6-9.1-2.4-.9-3.5 2.4-1.1 3.2l.3.1 1.5.9c1.9 1.5 3.2 3.5 4.1 5.5.8 2.2 4.7 1.5 3.8-.6z"/></g><g id="XMLID_56_"><path id="XMLID_57_" class="st1" d="M306.7 242.4c-.8 1.9-3.9 3.6-5.7 4.8-1.5 1.1-3.1 2.1-4.8 3.1-2 1.2.7 3.8 2.8 2.6 1.9-1.2 3.8-2.4 5.6-3.7 2.2-1.5 4.9-3.3 5.9-5.7.8-2-3-3.1-3.8-1.1z"/></g><g id="XMLID_54_"><path id="XMLID_55_" class="st1" d="M325.1 241.7c-.7-4.7-2.9-9.4-5.2-13.8-1.1-2.1-4.5-.5-3.5 1.5 2.1 4.1 4.1 8.5 4.8 13 .4 2.2 4.3 1.5 3.9-.7z"/></g><g id="XMLID_3_"><g id="XMLID_52_"><path id="XMLID_53_" class="st2" d="M360.9 259.4c-8.3 17.2-18.7 43.2 7.3 54.9 24.6 11.1 52.1 2.5 63.8-17.2 1.1-1.9-2.3-3.8-3.4-1.9-10.9 18.4-37 27-59.9 15.6-22.5-11.2-11.3-35.2-4-50.2 1-2.1-2.8-3.2-3.8-1.2z"/></g><g id="XMLID_50_"><path id="XMLID_51_" class="st2" d="M427.5 247.9c4.4-8.7 6.9-21.1-4.4-27.7-6.1-3.5-13.7-4.5-20.5-3.2-2.6.5-5.1 1.3-7.4 2.3-1.3.6-4 1.3-1.8 1.1-10.3.8-25.4-2.4-24.4 10.9.1 1.1 1 3.5.5 4.5-.5.9-1.4.5-2.4 1.1-2.7 1.8-4.7 3.2-6.3 5.9-2.5 4-2.5 7.7-1.5 12.2 3 13.1 7.9 25.8 10.9 38.9.5 2 3.8 1.6 3.9-.3.3-7.3 6.6-12.9 14.4-14.8 6.3-1.5 12.8-2.6 19.1-4 7.5-1.6 13.5-1.6 19.5 3.5 1.9 1.6 4.7-.7 2.9-2.2-4.8-4.1-10-6.3-16.6-5.7-4.6.4-8.9 1.7-13.3 2.7-4.8 1.1-10 1.6-14.7 3-8.6 2.5-14.9 9.4-15.3 17.4l3.9-.3c-2.7-11.5-6.7-22.8-9.7-34.2-1.5-5.7-3.5-11.4 1.3-16.3 4.3-4.5 8.2-2.3 7.6-8.8-.5-5.3.1-9.1 7.3-10.2 3.7-.6 7.3.1 11 0 3.3-.1 3.9-.7 7.1-1.9 9-3.4 23.9-2.5 27.9 7.3 2.3 5.8-.2 12.5-2.8 17.7-1 2 2.8 3.1 3.8 1.1z"/></g><g id="XMLID_48_"><path id="XMLID_49_" class="st2" d="M424.5 274.3c6.1-7.3 7.1-19.4 3.4-27.9-3.7-8.5-13.1-12.3-23.1-11.5-24.8 2-31.9 26.7-23.5 44.5 1 2.1 4.4.5 3.5-1.5-6.9-14.7-2.2-35.7 17.6-39.2 9.6-1.7 19.3 1.4 22.3 10.2 2.6 7.4 1.5 17.4-3.6 23.5-1.5 1.8 2 3.7 3.4 1.9z"/></g><g id="XMLID_46_"><path id="XMLID_47_" class="st2" d="M395.6 236.7c-3.5 6.3-.6 11.6 4.5 16.8 3 3.1 5.6 5.3 6.3 9.4.6 3.2.6 6.6.3 9.8-.2 2.2 3.8 2.4 4 .2.4-4.9.7-11.2-2.2-15.8-3.9-6.2-14-10.6-9.6-18.6 1.2-1.8-2.2-3.7-3.3-1.8z"/></g><g id="XMLID_44_"><path id="XMLID_45_" class="st2" d="M409.1 260.9c3.8-3.2 8.3-4.3 13.2-5.7 3.3-1 5.9-2.4 7-5.3.8-2.1-3-3.1-3.8-1.1-1.2 2.9-5.4 3.3-8.5 4.2-4.1 1.1-7.7 2.7-10.7 5.3-1.8 1.5 1 4.1 2.8 2.6z"/></g><g id="XMLID_42_"><path id="XMLID_43_" class="st2" d="M374.9 290c11-14 36.4 3.1 50 7.1 12.8 3.8 22.3-4 20.2-15.2-.5.7-1 1.3-1.4 2 6.2-1.8 13.2-5.5 14.5-11.4.8-3.6-.8-7.3-2.9-10.5-.8-1.2-1.7-2.5-2.8-3.5-1.3-1.2-1.1-1.6-.9-.5-1-3.9-.2-7.2-3.2-10.9-4.9-6.1-13.6-6.6-21.2-6.1-2.5.2-1.5 3.5 1 3.3 7.2-.5 15.4.4 18.5 7.1 1 2.3.3 4.5.9 6.6.7 2.3 3.3 4.1 4.6 6.2 4.8 7.9-1.1 13.9-9.6 16.4-1.1.3-1.6 1-1.4 2 1.3 7.2-3.9 13.7-12.8 11.9-7.3-1.5-14.2-5.2-21-7.9-12.1-4.8-27.4-9.3-35.9 1.5-1.4 1.8 2 3.7 3.4 1.9z"/></g><g id="XMLID_40_"><path id="XMLID_41_" class="st2" d="M379.6 316c-6.7 15.5-26.7 10.5-40.6 4.2-12.3-5.6-25-9.3-38.7-10.7.6.8 1.3 1.5 1.9 2.3 5.4-11.6 9.9-23.7 12.3-36.1 3.1-16.2 26.4-30.6 45.4-20.6 2.2 1.2 4.3-1.7 2.1-2.8-16.6-8.7-38.5-.7-47.4 12.1-5.4 7.8-5.5 18.5-8.5 27.2-2.2 6.5-4.7 12.9-7.7 19.1-.5 1.1.7 2.1 1.9 2.3 8.5.8 17.3 2.6 25.3 5.3 8.3 2.8 15.7 7.3 24.2 9.6 14.5 4.1 28.1 2 33.6-10.7.9-2.2-2.9-3.2-3.8-1.2z"/></g><g id="XMLID_38_"><path id="XMLID_39_" class="st2" d="M354 289.4c-9.8-3-21.1-1.5-28.2 4.7-1.8 1.5 1 4.1 2.8 2.6 6.2-5.4 15.9-6.7 24.3-4.1 2.5.8 3.5-2.4 1.1-3.2z"/></g><g id="XMLID_36_"><path id="XMLID_37_" class="st2" d="M353.8 283c-4.6-.7-9.6-1.7-14.1-1.3-2.5.2-1.5 3.6 1 3.3 4.2-.4 9 .7 13.1 1.4 2.5.4 2.5-3 0-3.4z"/></g><g id="XMLID_34_"><path id="XMLID_35_" class="st2" d="M442.9 290.4c19.9 2 32.8 21.2 26.9 37-2.9 7.8-11.5 14.1-20.7 16.2-3.1.7-7.1 0-9.9 1-1.8.6-5.3 4.1-7.6 5.3-8 4.1-17.2 5.3-26.6 4.6-10.1-.7-24.7-3.3-34.2.8.9.3 1.8.5 2.7.8-4.5-9.5-9.4-18.6-12.5-28.5-.7-2.2-4.5-1.5-3.9.7 3.1 10.2 8.2 19.5 12.9 29.3.4.9 1.9 1.1 2.7.8 4.3-1.9 10.7-1.6 15.5-1.6 12 .1 23.8 2.6 35.4-.3 6-1.5 12.3-4.1 16.6-7.9.4-.4.9-.9 1.4-1.2 1.6-1.2-2 .4-.9.3 1.9-.2 3.8.1 5.7-.1 17-1.9 29.7-15.1 28.6-29.9-1.2-15.3-13.9-28.9-32.1-30.7-2.5-.3-2.6 3.1 0 3.4z"/></g><g id="XMLID_32_"><path id="XMLID_33_" class="st2" d="M449.6 251.3c7.2-5.5 20.7 3.5 27.3 7.1 4.4 2.3 11.5 7.4 16.9 6.2-.7-.9-1.5-1.8-2.2-2.6-6.1 6.3-7.3 14.2-5.9 22.3C488 298 488 309.4 472 316c-2.3.9-.3 4 2 3.1 11.5-4.8 17.5-12.7 17.1-24-.4-11.1-5.2-21.7 3.9-31.1 1.1-1.1-.7-3-2.2-2.6-3.5.8-8.9-3-11.8-4.5-4.6-2.4-9-4.9-13.8-7-6.5-2.8-14.6-5.4-20.4-.9-1.9 1.2.9 3.8 2.8 2.3z"/></g><g id="XMLID_30_"><path id="XMLID_31_" class="st2" d="M403 219.8c6.9-15.5 31.2-1.8 43.2-8.9l-3.3-1.8c-5.7 14.7 18.9 26.3 18.8 40.8 0 2.2 4 2.4 4 .2.1-7.6-5.1-14.4-10.2-20.5-4.4-5.4-11.5-12.4-8.8-19.3.7-1.8-1.9-2.7-3.3-1.8-3 1.8-8.8.8-12.3.6-4.6-.2-9.2-.4-13.8-.1-8.2.6-15.1 3.2-18.1 9.9-.9 1.8 2.9 2.9 3.8.9z"/></g><g id="XMLID_28_"><path id="XMLID_29_" class="st2" d="M406.5 213.5c-12.4-17.4-48.2-20.4-60.4-3.2-1.6 2.2-2.5 4.7-3.9 7-1.7 2.6-3.2 3.1-6.1 4.4-3.7 1.6-6.5 3.9-8.9 6.8-6.8 8.2-8.4 18.8-2.4 28.2 1.3 2 4.7.5 3.5-1.5-5.9-9.2-3.3-20.5 5-27.5 4.7-4 9.4-3.2 12.5-8.8 5.7-10.1 12.4-16.3 26.2-16.5 11.7-.2 24.5 3.5 31 12.6 1.4 2 4.9.4 3.5-1.5z"/></g><g id="XMLID_26_"><path id="XMLID_27_" class="st2" d="M425.3 269.9c3.9.5 8.6 2.4 11.2 4.4 2 1.5 4.8-.8 2.9-2.2-4-3-8.9-4.9-14.1-5.6-2.5-.4-2.5 3 0 3.4z"/></g><g id="XMLID_24_"><path id="XMLID_25_" class="st2" d="M414.2 311.5c4.4 5.4 6.3 12.4 5.3 18.8-.3 2.2 3.7 2.3 4 .2 1.1-6.9-1-14.6-5.8-20.5-1.5-1.8-5-.3-3.5 1.5z"/></g><g id="XMLID_22_"><path id="XMLID_23_" class="st2" d="M420.2 307.6c3.5 2.6 5.1 7.3 6.2 10.9.7 2.2 4.5 1.5 3.9-.7-1.3-4.2-3.2-9.5-7.2-12.5-2-1.4-4.9.9-2.9 2.3z"/></g><g id="XMLID_20_"><path id="XMLID_21_" class="st2" d="M443.4 286.8c8.3 1.3 19.5.1 22.7-7.5.9-2-3-3.1-3.8-1.1-.1.3.2-.3 0 .1l-.6.9c-.7.9-1.6 1.7-2.6 2.4-4.4 2.8-10.3 2.6-15.6 1.8-2.7-.5-2.7 3-.1 3.4z"/></g><g id="XMLID_18_"><path id="XMLID_19_" class="st2" d="M434 242.4c-.3-5.9 3-12.3 5.8-17.5 1-1.9-2.4-3.9-3.4-1.9-3.1 5.8-6.7 12.6-6.4 19.2.2 2.2 4.2 2.4 4 .2z"/></g><g id="XMLID_16_"><path id="XMLID_17_" class="st2" d="M431.2 233l1.5-6.9c.5-2.1-3.3-3.2-3.8-1.1-.5 2.3-1.1 4.6-1.5 6.9-.5 2.1 3.3 3.2 3.8 1.1z"/></g><g id="XMLID_14_"><path id="XMLID_15_" class="st2" d="M363.9 240.9c-6.4-1.3-12.4-4.6-17-8.6-1.9-1.6-4.7.6-2.9 2.2 5.2 4.4 11.8 8.2 18.8 9.6 2.6.5 3.7-2.7 1.1-3.2z"/></g><g id="XMLID_12_"><path id="XMLID_13_" class="st2" d="M367.8 237.3c-4.3-1.4-8.4-3.5-11.9-6.1-1.9-1.5-4.8.7-2.9 2.2 4 3.1 8.7 5.6 13.7 7.1 2.5.8 3.5-2.4 1.1-3.2z"/></g><g id="XMLID_10_"><path id="XMLID_11_" class="st2" d="M371.8 235.8c-1.4-.6-2.8-1.4-3.9-2.3-.4-.3-.7-.6-1.1-1-.2-.2-.7-.8-.2-.2-.6-.8-1.7-1.2-2.7-.8-.9.4-1.4 1.5-.8 2.3 1.9 2.3 4.5 4.1 7.5 5.3 2.5.8 3.6-2.4 1.2-3.3z"/></g><g id="XMLID_8_"><path id="XMLID_9_" class="st2" d="M386.9 247.7c.8-4.6-1-9.4-4.6-13.1-1.7-1.7-4.6.5-2.9 2.2 2.6 2.6 4.2 6.4 3.7 9.7-.4 2.2 3.4 3.3 3.8 1.2z"/></g><g id="XMLID_6_"><path id="XMLID_7_" class="st2" d="M391.8 243c2-3.1 2.7-6.8 2.8-10.4.1-2.2-3.9-2.4-4-.2-.1 2.9-.6 6.1-2.2 8.7-1.2 1.8 2.2 3.8 3.4 1.9z"/></g><g id="XMLID_4_"><path id="XMLID_5_" class="st2" d="M427.2 267.3c2.2-.3 4.9.4 7.1.9 2.5.6 3.6-2.6 1.1-3.2-2.9-.7-6.2-1.5-9.2-1.1-2.5.4-1.5 3.8 1 3.4z"/></g></g></g><text id="XMLID_1_" transform="matrix(1.9029 0 0 2 214.024 316.037)" class="st1 st3 st4">D</text><text transform="matrix(2.4126 0 0 2 504.627 307.321)" class="st1 st3 st5">G</text></g></switch></svg>