<?xml version="1.0" encoding="utf-8"?>
<!-- Generator: Adobe Illustrator 21.0.0, SVG Export Plug-In . SVG Version: 6.00 Build 0)  -->
<svg version="1.1" id="Layer_1" xmlns="http://www.w3.org/2000/svg" xmlns:xlink="http://www.w3.org/1999/xlink" x="0px" y="0px"
	 viewBox="0 0 393 279" style="enable-background:new 0 0 393 279;" xml:space="preserve">
<style type="text/css">
	.st0{fill:#383736;}
	.st1{fill:#3D4D61;}
	.st2{fill:#FFFFFF;}
	.st3{fill:#F06562;}
	.st4{font-family:'Nickainley-Normal';}
	.st5{font-size:37.207px;}
	.st6{font-size:34.9221px;}
</style>
<g>
	<path class="st0" d="M39,135.5c0-12.9,0-25.7,0-38.6c0-1.8-0.1-3.6,0.1-5.4c0.3-2.5,1.7-3.9,4.3-4.2c2.7-0.3,5.5-0.2,8.2-0.2
		c10.7-0.1,21.5,0,32.2,0c1.4,0,2.7,0,4.1,0.1c2.9,0.2,5.3-0.8,7.7-2.3c4-2.4,7.6-5.4,11.8-7.7c4.2-2.3,7.8-5.4,12-7.6
		c3.3-1.7,6-4.2,9.3-5.9c3.3-1.6,6.3-3.9,9.4-5.9c1.4-0.9,2.6-2.2,4.1-2.8c2.5-1,4.3-2.9,6.7-4c4.8-2.2,9.1-5.4,13.5-8.2
		c2.5-1.6,5.1-3.1,7.5-5c2-1.5,4.4-2.6,6.6-4c3.9-2.5,7.7-5,11.6-7.5c2.1-1.4,4.1-2.9,6.6-3.8c1.2-0.4,2.1-0.4,3.2,0.2
		c4.4,2.5,8.7,5.3,12.8,8.3c0.4,0.3,0.8,0.6,1.2,0.8c3.6,1.3,6.5,3.7,9.5,5.7c4.7,3.1,9.3,6.3,14.2,9.2c1.1,0.7,1.9,1.8,3.2,2.2
		c3,1.1,5.3,3.3,7.9,4.9c1.5,0.9,3,1.9,4.5,2.8c2,1.2,4,2.4,5.8,3.8c0.3,0.2,0.7,0.5,1,0.6c3.4,1.4,6.4,3.4,9.2,5.5
		c3.4,2.5,7.3,4.5,10.6,7.1c2.1,1.6,4.4,3,6.7,4.3c4.3,2.4,8.1,5.4,12.4,7.6c1.8,1,3.6,1.6,5.8,1.6c13.4,0,26.9,0,40.3,0.1
		c1.3,0,2.6,0,3.9-0.1c3.3-0.1,5.5,2,5.5,5.2c0,17.2,0.1,34.4,0,51.7c-0.1,7.2-0.1,14.4-0.1,21.6c0,3.8,0.1,7.6,0.2,11.4
		c0,0.8,0,1.6,0,2.3c-0.3,3.7-2.3,5.4-6.1,5.4c-7.9,0-15.8-0.1-23.7-0.1c-5.5,0-10.9,0-16.4,0.1c-2.3,0-4.5,0.6-6.3,2
		c-1.7,1.4-3.6,2.4-5.5,3.5c-4.2,2.4-8.1,5.1-12.2,7.6c-3.1,1.9-6.2,4-9.5,5.6c-2.3,1.1-4.6,2.7-6.8,4.2c-2,1.4-4.1,2.7-6.3,3.8
		c-2,1-3.9,2.3-5.7,3.6c-1.8,1.3-3.9,2.2-5.7,3.5c-1.5,1.1-3.2,1.9-4.6,3.1c-0.7,0.6-1.5,1-2.4,1.1c-1.1,0-1.6,0.9-2.4,1.4
		c-2.2,1.2-4.3,2.5-6.4,3.8c-1.9,1.3-3.7,2.7-5.7,3.9c-4,2.3-8,4.6-12,6.9c-1.3,0.8-2.5,1.9-3.9,2.6c-3.2,1.5-5.8,3.9-8.9,5.6
		c-1.4,0.8-2.8,1.6-4.3,2.2c-1.4,0.6-2.7,0.6-4-0.1c-3.3-1.6-6.4-3.3-9.2-5.6c-0.6-0.5-1.3-1.1-2.1-1.4c-3.3-1.6-6.1-4-9.5-5.3
		c-0.7-0.3-1.4-0.7-2-1.1c-4.9-3.6-10.3-6.6-15.6-9.7c-1.2-0.7-2.1-1.8-3.4-2.3c-2.3-1-4.2-2.6-6.3-3.9c-4-2.5-8.3-4.6-12.2-7.3
		c-2.4-1.6-4.7-3.5-7.6-4.3c-0.8-0.2-1.2-1-1.9-1.4c-3.3-2.1-6.4-4.4-10-6.1c-1-0.5-1.8-1.4-2.8-1.9c-6.6-3.2-12.5-7.6-18.8-11.3
		c-2.8-1.7-5.6-2.6-9-2.6c-13,0.1-26.1,0.1-39.1,0c-2.4,0-4.6-1.5-5-3.4c-0.2-1-0.2-2.1-0.2-3.1c0-8,0-15.9,0-23.9
		C39,148,39,141.8,39,135.5C39,135.5,39,135.5,39,135.5z"/>
	<path class="st1" d="M258.4,105.3c0,0.2,0,0.4,0,0.6c0,0.4,0.1,0.9-0.4,1.1c-0.2,0.1-0.4-0.1-0.5-0.3c-0.1-0.5-0.2-1,0.5-1.3
		C258.1,105.4,258.3,105.4,258.4,105.3L258.4,105.3z"/>
	<path class="st0" d="M304.7,134.3c0-0.2,0-0.4,0-0.6c0-0.4-0.1-0.8,0.3-1c0.2-0.1,0.4,0.1,0.5,0.3c0.2,0.5,0.3,0.9-0.3,1.2
		C305,134.3,304.8,134.3,304.7,134.3L304.7,134.3z"/>
	<path class="st0" d="M318.2,132.3c0,0.3,0,0.7,0,1c-0.5,0-0.9,0-1.4,0C317.1,132.7,317.5,132.2,318.2,132.3L318.2,132.3z"/>
	<path class="st0" d="M309.8,134.7c0,0.1,0.1,0.1,0.1,0.2c0,0.1-0.2,0.2-0.3,0.1c0,0-0.1-0.2,0-0.2
		C309.6,134.7,309.7,134.7,309.8,134.7z"/>
	<path class="st1" d="M260.6,94.5c0.1,0.6,0.4,1,1.1,1c0,0.3,0,0.7,0,1l0,0c-0.4,0-0.7,0.1-1.1,0.1c-2.4,0.2-2.4,0.2-2.2-2.1
		C259.1,94.5,259.8,94.5,260.6,94.5z"/>
	<path class="st1" d="M261.6,96.6c0.1,0,0.3,0,0.4,0.1c0.3,0,0.6,0.1,0.7,0.5c0,0.2-0.1,0.4-0.3,0.4c-0.5,0.1-0.6-0.2-0.7-0.6
		C261.7,96.8,261.7,96.7,261.6,96.6L261.6,96.6z"/>
	<path class="st0" d="M325,133.3c0.8,0,1,0.4,1.1,1.1C325.4,134.3,325,134,325,133.3z"/>
	<path class="st0" d="M318.3,132.3c0-0.4,0-0.8,0.5-0.9c0.1,0,0.2,0.1,0.2,0.1C319.1,132.1,318.5,132.1,318.3,132.3L318.3,132.3z"/>
	<path class="st0" d="M199.6,65.3c0.4,0,0.8,0,1.2,0.1c0.4,0.1,1,0.1,0.9,0.7c-0.1,0.6-0.7,0.5-1.2,0.4
		C199.8,66.3,199.8,65.8,199.6,65.3L199.6,65.3z"/>
	<path class="st0" d="M203.2,65.3c-0.2,0-0.4,0-0.5,0c-0.3,0-0.5-0.1-0.5-0.4c0-0.2,0.1-0.3,0.3-0.4c0.3-0.1,0.5,0.1,0.6,0.4
		C203.1,65,203.1,65.2,203.2,65.3L203.2,65.3z"/>
	<path class="st1" d="M300.8,155.3c0,0.2-0.1,0.3-0.3,0.3c-0.2,0-0.4,0-0.4-0.2c0-0.2,0.2-0.3,0.3-0.3
		C300.6,155.1,300.7,155.1,300.8,155.3z"/>
	<path class="st0" d="M258.4,145.2c0-0.4,0-0.7,0-1.1c0.7,0,1,0.4,1.1,1.1C259.1,145.2,258.8,145.2,258.4,145.2z"/>
	<path class="st1" d="M197.5,101c0.4,0,0.7,0,1.1,0c-0.1,0.4-0.1,0.9-0.6,0.8C197.5,101.7,197.5,101.3,197.5,101z"/>
	<path class="st1" d="M225,97.5c-0.2,0-0.3-0.2-0.3-0.4c0-0.2,0.2-0.4,0.5-0.3c0.2,0,0.3,0.2,0.2,0.4
		C225.4,97.4,225.2,97.5,225,97.5z"/>
	<path class="st1" d="M217.8,84.7c0.4,0,0.7,0,1.1,0c-0.1,0.3-0.1,0.7-0.5,0.8C217.9,85.5,217.9,85,217.8,84.7z"/>
	<path class="st1" d="M206.4,117.2c0.8,0,1.1,0.3,1.1,1.1C206.8,118.3,206.4,117.9,206.4,117.2z"/>
	<path class="st0" d="M259.5,134.3c-0.7-0.1-1-0.4-1.1-1.1C259.1,133.3,259.4,133.7,259.5,134.3z"/>
	<path class="st0" d="M208.6,87c0,0.3-0.1,0.7-0.5,0.8c-0.5,0-0.6-0.4-0.6-0.8C207.9,87,208.2,87,208.6,87z"/>
	<path class="st0" d="M279.8,131.2c0,0.3,0,0.5,0,0.8c-0.3-0.1-0.6-0.1-0.7-0.3C279.1,131.2,279.5,131.3,279.8,131.2z"/>
	<path class="st0" d="M235.9,95.6c-0.9,0-1.7,0.1-2.3,0.8c-0.3,0.4-0.8,0.3-1.2,0.3c-0.3-1,1.2-1.2,1.1-2.1
		C234.4,94.7,235.7,94,235.9,95.6z"/>
	<path class="st0" d="M237,165.6c0.3,0,0.6,0,0.8,0c-0.1,0.3,0,0.7-0.4,0.7C237,166.2,237.1,165.8,237,165.6z"/>
	<path class="st0" d="M224.5,107.4c0.7,0,1.1,0.4,1.1,1.1C225,108.4,224.6,108.1,224.5,107.4z"/>
	<path class="st0" d="M175,98.9c0.7,0.1,1,0.5,1.1,1.1C175.5,99.8,175.1,99.5,175,98.9z"/>
</g>
<g id="XMLID_72_">
	<g id="XMLID_411_">
		<path id="XMLID_412_" class="st2" d="M243.8,92.8c4.3-3.8,14.1-0.4,19.3,0.4c6.1,1,12.3,1.4,17.7-1.3c-0.8-0.4-1.6-0.9-2.4-1.3
			c0.7,9.4-5.5,17.7-14.3,22.1c-1.7,0.9-0.2,3.4,1.6,2.5c9.8-4.9,16.7-14.1,15.9-24.5c-0.1-1-1.3-1.9-2.4-1.3
			c-7,3.5-15.6,1-23.3-0.3c-4.9-0.8-10.6-1.7-14.3,1.5C240.1,92,242.3,94.1,243.8,92.8L243.8,92.8z"/>
	</g>
	<g id="XMLID_409_">
		<path id="XMLID_410_" class="st2" d="M141.1,89.2c-6.2-2.6-12.4-2.7-18.7-1.1c-5.2,1.3-10.5,4.6-16,4.8c-1.2,0.1-2.3,1.4-1.1,2.3
			c9.6,8.1,11.6,21.3,25.2,25.5c2,0.6,2.8-2,0.9-2.6c-12.5-3.8-14.8-17.1-23.8-24.7c-0.4,0.8-0.8,1.5-1.1,2.3c4.2-0.2,8-2,11.7-3.3
			c7.3-2.5,14.5-3.6,22.1-0.5C142.1,92.7,143,90,141.1,89.2L141.1,89.2z"/>
	</g>
	<g id="XMLID_407_">
		<path id="XMLID_408_" class="st2" d="M135.1,158.3c-6.9,2.7-11.1,7.2-12.3,14c-1.1,6.3,1.9,14.9-2.1,20.4c-0.8,1.1,0.8,2.7,2.1,2
			c3.7-1.8,8.2-3.3,12.6-3.1c5.1,0.2,9.5,2.1,14.7,1.9c8.7-0.4,17.9-3.7,21.7-10.8c0.8-1.6-1.9-3.2-2.7-1.6
			c-4.5,8.5-17.7,11.2-27.7,8.8c-7.1-1.7-13.9-0.7-20.1,2.4c0.7,0.7,1.4,1.4,2.1,2c3-4,2.3-9.2,2.2-13.9c-0.2-8.7,1.4-15.7,11-19.6
			C138.5,160.1,136.9,157.6,135.1,158.3L135.1,158.3z"/>
	</g>
	<g id="XMLID_405_">
		<path id="XMLID_406_" class="st2" d="M153.8,191c-1.8,10.8,17.8,14.1,23.2,21.9c0.6,0.9,2.1,1.1,2.7,0.2c1.4-1.9,3-3.8,4.9-5.4
			c2.7-2.3,5.9-2.9,8.9-4.7c3.6-2.2,5.5-6.6,6.2-10.3c0.4-1.7-2.7-2.6-3.1-0.9c-0.3,1.5-0.8,2.9-1.4,4.3c-1.8,3.9-4.9,4.6-8.7,6.5
			c-4,2-7.2,5.5-9.6,8.9c0.9,0.1,1.8,0.1,2.7,0.2c-2.6-3.7-6.5-6.2-10.7-8.6c-4.2-2.4-13.1-5.9-12.2-11.2
			C157.1,190.1,154.1,189.2,153.8,191L153.8,191z"/>
	</g>
	<g id="XMLID_403_">
		<path id="XMLID_404_" class="st2" d="M261.7,158.9c6.2,3.8,7.7,11.2,9.4,17.2c1,3.6,1.7,8.4,5,11.1c0-0.7,0-1.3,0-2
			c-1,0.9-4.5,1.1-6.3,1.1c-9.5,0.2-19.3-2.5-28.4-5c-2-0.5-2.8,2.1-0.9,2.6c9.8,2.7,20.6,5.7,30.8,5.1c2.2-0.1,5.3-0.3,6.9-1.7
			c0.6-0.5,0.7-1.4,0-2c-4.1-3.5-4.5-11.4-6.1-16c-1.7-4.9-4-9.7-9-12.8C261.6,155.5,260,157.8,261.7,158.9L261.7,158.9z"/>
	</g>
	<g id="XMLID_401_">
		<path id="XMLID_402_" class="st2" d="M106,95.6c10.6,2.1,20.9,6.2,30.6,10.8c1.8,0.9,3.5-1.4,1.6-2.3c-9.9-4.7-20.5-9-31.4-11.1
			C104.8,92.6,104,95.2,106,95.6L106,95.6z"/>
	</g>
	<g id="XMLID_399_">
		<path id="XMLID_400_" class="st2" d="M123.4,194.3c9.2-10.7,22.5-19,36.1-24.9c1.8-0.8,0.2-3.3-1.6-2.5
			c-14.1,6.2-27.8,14.8-37.2,25.9C119.5,194.1,122.2,195.7,123.4,194.3L123.4,194.3z"/>
	</g>
	<g id="XMLID_397_">
		<path id="XMLID_398_" class="st2" d="M179.9,212c-2-5.8-3.8-12.5-2.6-18.4c0.4-1.7-2.7-2.6-3.1-0.9c-1.3,6.4,0.4,13.6,2.6,19.9
			C177.5,214.3,180.5,213.7,179.9,212L179.9,212z"/>
	</g>
	<g id="XMLID_395_">
		<path id="XMLID_396_" class="st2" d="M278,185.1c-8.3-3.6-16.3-8.6-22.2-15c-1.3-1.4-3.6,0.4-2.3,1.8c6,6.5,14.3,11.8,22.8,15.4
			C278.2,188.3,279.9,186,278,185.1L278,185.1z"/>
	</g>
	<g id="XMLID_393_">
		<path id="XMLID_394_" class="st2" d="M278.8,89.6c-7.7,6.7-19.9,10.3-30.3,13c-1.9,0.5-1.1,3.2,0.8,2.7
			c10.9-2.8,23.6-6.5,31.7-13.6C282.4,90.5,280.2,88.4,278.8,89.6L278.8,89.6z"/>
	</g>
	<g id="XMLID_391_">
		<path id="XMLID_392_" class="st2" d="M123.8,141.1c-6.1,1.5-10.4,4.4-11.2,10.2c-0.8,5.9,3.2,12.7,0.7,18.3
			c-0.4,0.9,0.6,1.7,1.5,1.8c3.8,0.5,7.6,0.5,11-0.8c1.8-0.7,0.3-3.2-1.6-2.5c-2.9,1.1-6.3,1-9.5,0.5c0.5,0.6,1,1.2,1.5,1.8
			c4.1-9.5-7.9-22.8,8.2-26.7C126.5,143.4,125.8,140.6,123.8,141.1L123.8,141.1z"/>
	</g>
	<g id="XMLID_389_">
		<path id="XMLID_390_" class="st2" d="M116.3,170.9c3.4-4.4,6.8-8.8,9.8-13.4c1-1.5-1.7-3.1-2.7-1.6c-3,4.6-6.4,9-9.8,13.4
			C112.4,170.7,115.2,172.3,116.3,170.9L116.3,170.9z"/>
	</g>
	<g id="XMLID_387_">
		<path id="XMLID_388_" class="st2" d="M152.2,171.2c3.1,5.9,4.6,13.7,3.7,19.3c-0.3,1.7,2.8,2.7,3.1,0.9c1.2-7.1-0.4-14.8-4-21.5
			C154.1,168.3,151.3,169.5,152.2,171.2L152.2,171.2z"/>
	</g>
	<g id="XMLID_385_">
		<path id="XMLID_386_" class="st2" d="M143.7,175c0.6,5.5-1.1,11.1-3,16.2c-0.6,1.7,2.4,2.6,3.1,0.9c2-5.3,3.7-11.2,3.1-16.9
			C146.7,173.4,143.5,173.2,143.7,175L143.7,175z"/>
	</g>
	<g id="XMLID_383_">
		<path id="XMLID_384_" class="st2" d="M151.4,170.9c-7.4-3.3-15.8-5-23.8-6.7c-2-0.4-2.9,2.2-0.9,2.6c7.6,1.6,15.9,3.3,23,6.4
			C151.6,174.1,153.3,171.8,151.4,170.9L151.4,170.9z"/>
	</g>
	<g id="XMLID_381_">
		<path id="XMLID_382_" class="st2" d="M136,180.1c-4.3-1.1-9.1-1.5-13.2-0.2c-1.9,0.6-0.3,3.1,1.6,2.5c-0.7,0.2,0.5-0.1,0.7-0.1
			c0.7-0.1,1.4-0.2,2.1-0.3c2.7-0.2,5.4,0.1,8,0.8C137.1,183.2,138,180.6,136,180.1L136,180.1z"/>
	</g>
	<g id="XMLID_379_">
		<path id="XMLID_380_" class="st2" d="M175.9,196.1c5.6,0.8,11.2,3.2,15.6,6.6c1.6,1.2,3.9-0.6,2.3-1.8c-5.1-3.9-11.3-6.6-17.8-7.5
			C173.9,193.1,173.9,195.9,175.9,196.1L175.9,196.1z"/>
	</g>
	<g id="XMLID_377_">
		<path id="XMLID_378_" class="st2" d="M175.1,195.4c-4.2,1.1-8.2,3.4-10.6,6.7c-1.1,1.5,1.7,3.1,2.7,1.6c1.9-2.7,5.2-4.6,8.6-5.5
			C177.8,197.7,177,194.9,175.1,195.4L175.1,195.4z"/>
	</g>
	<g id="XMLID_375_">
		<path id="XMLID_376_" class="st2" d="M173.4,186.5c-3.6-0.1-7,2.8-9.4,4.8c-2.3,1.9-4.5,3.9-6.6,5.9c-1.3,1.3,0.9,3.4,2.2,2.1
			c1.6-1.6,3.3-3.2,5.1-4.7c2-1.7,5.5-5.4,8.6-5.3C175.4,189.4,175.4,186.6,173.4,186.5L173.4,186.5z"/>
	</g>
	<g id="XMLID_373_">
		<path id="XMLID_374_" class="st2" d="M257.7,173.5c2.7-3.4,7.5-5.8,12.6-5.1c2,0.3,2-2.5,0-2.8c-6.1-0.8-12,2.2-15.3,6.3
			C253.9,173.4,256.6,175,257.7,173.5L257.7,173.5z"/>
	</g>
	<g id="XMLID_371_">
		<path id="XMLID_372_" class="st2" d="M257.4,174.1c-3,3.4-3.3,8.4-2.3,12.6c0.4,1.8,3.5,1.2,3.1-0.6c-0.8-3.6-0.5-7.7,2-10.5
			C261.3,174.2,258.6,172.7,257.4,174.1L257.4,174.1z"/>
	</g>
	<g id="XMLID_369_">
		<path id="XMLID_370_" class="st2" d="M261.9,178.1c-0.9,3.1-0.4,6.6,0.7,9.7c0.6,1.7,3.7,1.2,3.1-0.6c-0.9-2.6-1.5-5.6-0.8-8.2
			C265.4,177.2,262.3,176.3,261.9,178.1L261.9,178.1z"/>
	</g>
	<g id="XMLID_367_">
		<path id="XMLID_368_" class="st2" d="M268.4,182.6c1.5-0.8,3.7-0.9,5.5-0.9c2,0,2.1-2.8,0-2.8c-2.3,0-5.2,0.1-7.1,1.2
			C265.2,181,266.7,183.5,268.4,182.6L268.4,182.6z"/>
	</g>
	<g id="XMLID_365_">
		<path id="XMLID_366_" class="st2" d="M123,159.1c1.2,0.8,2,2.2,2.6,3.4c0.4,0.7,0.8,1.5,1,2.1c0.7,1.7,3.8,1.2,3.1-0.6
			c-1.1-2.6-2.6-5.4-5.1-7.2C123,155.6,121.4,158,123,159.1L123,159.1z"/>
	</g>
	<g id="XMLID_363_">
		<path id="XMLID_364_" class="st2" d="M120.1,161.9c1.1,2.4,1.3,5.3,1.5,7.8c0.1,1.8,3.3,2,3.2,0.2c-0.2-3.1-0.5-6.3-1.9-9.2
			C122.1,158.9,119.4,160.2,120.1,161.9L120.1,161.9z"/>
	</g>
	<g id="XMLID_361_">
		<path id="XMLID_362_" class="st2" d="M123.9,157.9c-3.1-1.3-6.9-0.8-10-0.1c-1.9,0.4-1.2,3.2,0.8,2.7c2.1-0.5,5.4-1.2,7.5-0.3
			C124.1,161,125.8,158.7,123.9,157.9L123.9,157.9z"/>
	</g>
	<g id="XMLID_359_">
		<path id="XMLID_360_" class="st2" d="M121.7,147.7c-2.8-0.5-6,1-8.4,2.1c-1.8,0.8-0.2,3.3,1.6,2.5c1.9-0.9,4.5-2.2,6.8-1.8
			c0.9,0.1,1.6-0.6,1.6-1.3C123.3,148.4,122.6,147.9,121.7,147.7L121.7,147.7z"/>
	</g>
	<g id="XMLID_357_">
		<path id="XMLID_358_" class="st2" d="M254.6,102.5c3.7,4.8,10.3,7.7,16.4,9.3c2,0.5,2.8-2.1,0.9-2.6c-5.2-1.4-11.3-3.8-14.5-7.9
			C256.2,99.8,253.4,101,254.6,102.5L254.6,102.5z"/>
	</g>
	<g id="XMLID_355_">
		<path id="XMLID_356_" class="st2" d="M261.3,100.8c0.1-2.9,1.7-5.8,3.7-8.1c1.2-1.4-1.5-2.9-2.7-1.6c-2.3,2.7-4,6-4.1,9.5
			C258,102.4,261.2,102.5,261.3,100.8L261.3,100.8z"/>
	</g>
	<g id="XMLID_353_">
		<path id="XMLID_354_" class="st2" d="M254.1,103.1c-0.5-4,0.9-8.2,2.8-11.8c0.8-1.6-1.9-3.2-2.7-1.6c-2.1,4-3.9,8.6-3.3,13.2
			C251.1,104.7,254.3,104.8,254.1,103.1L254.1,103.1z"/>
	</g>
	<g id="XMLID_351_">
		<path id="XMLID_352_" class="st2" d="M269.7,97.6c2.5,1.7,6,2.4,9,2.6c2,0.2,2.1-2.6,0-2.8c-2.5-0.2-5.3-0.7-7.4-2.2
			C269.7,94.1,268.1,96.4,269.7,97.6L269.7,97.6z"/>
	</g>
	<g id="XMLID_349_">
		<path id="XMLID_350_" class="st2" d="M132.1,103.2c-1.6,4.2-4.8,9.4-8.7,11.6c-1.7,0.9-0.1,3.5,1.6,2.5c5.2-2.9,8.3-8.2,10.2-13.2
			C135.8,102.4,132.8,101.5,132.1,103.2L132.1,103.2z"/>
	</g>
	<g id="XMLID_347_">
		<path id="XMLID_348_" class="st2" d="M129.9,101.4c-0.5-4.6-2.9-9.2-6.3-12.8c-1.3-1.4-3.6,0.4-2.3,1.8c2.9,3,4.9,7,5.4,10.8
			C126.9,103,130.1,103.2,129.9,101.4L129.9,101.4z"/>
	</g>
	<g id="XMLID_345_">
		<path id="XMLID_346_" class="st2" d="M122.6,98c-1.2-2.9-3.4-6.2-6.9-7.4c-1.9-0.7-2.8,1.9-0.9,2.6c-0.4-0.2,0,0,0.2,0.1
			c0.4,0.2,0.8,0.5,1.2,0.8c1.5,1.2,2.6,2.8,3.3,4.5C120.2,100.2,123.3,99.7,122.6,98L122.6,98z"/>
	</g>
	<g id="XMLID_343_">
		<path id="XMLID_344_" class="st2" d="M123.9,99.8c-0.6,1.6-3.1,2.9-4.5,3.9c-1.2,0.9-2.5,1.7-3.8,2.5c-1.6,1,0.6,3.1,2.2,2.1
			c1.5-0.9,3-1.9,4.5-3c1.7-1.2,3.9-2.7,4.7-4.6C127.7,99,124.6,98.1,123.9,99.8L123.9,99.8z"/>
	</g>
	<g id="XMLID_341_">
		<path id="XMLID_342_" class="st2" d="M138.6,99.2c-0.6-3.8-2.3-7.7-4.1-11.3c-0.8-1.7-3.6-0.4-2.8,1.2c1.7,3.4,3.3,7,3.8,10.6
			C135.8,101.5,138.9,100.9,138.6,99.2L138.6,99.2z"/>
	</g>
	<g id="XMLID_73_">
		<g id="XMLID_339_">
			<path id="XMLID_340_" class="st3" d="M167.1,113.6c-6.6,14-14.9,35.2,5.8,44.8c19.6,9,41.5,2,50.8-14.1c0.9-1.6-1.8-3.1-2.7-1.6
				c-8.7,15-29.5,22-47.7,12.7c-17.9-9.2-9-28.7-3.2-41C171,112.9,167.9,112,167.1,113.6L167.1,113.6z"/>
		</g>
		<g id="XMLID_337_">
			<path id="XMLID_338_" class="st3" d="M220.2,104.2c3.5-7.1,5.5-17.3-3.5-22.6c-4.9-2.9-10.9-3.6-16.3-2.6c-2,0.4-4,1-5.9,1.9
				c-1,0.5-3.2,1.1-1.5,0.9c-8.2,0.6-20.2-2-19.4,8.9c0.1,0.9,0.8,2.9,0.4,3.7c-0.4,0.7-1.1,0.4-1.9,0.9c-2.2,1.4-3.7,2.6-5,4.8
				c-2,3.3-2,6.3-1.2,9.9c2.4,10.7,6.3,21.1,8.7,31.7c0.4,1.6,3.1,1.3,3.1-0.2c0.3-5.9,5.2-10.5,11.5-12.1c5-1.2,10.2-2.1,15.2-3.3
				c6-1.3,10.7-1.3,15.5,2.8c1.5,1.3,3.8-0.5,2.3-1.8c-3.8-3.4-7.9-5.1-13.2-4.7c-3.6,0.3-7.1,1.4-10.6,2.2c-3.8,0.9-8,1.3-11.7,2.4
				c-6.8,2.1-11.9,7.7-12.2,14.2c1-0.1,2.1-0.1,3.1-0.2c-2.1-9.4-5.3-18.6-7.7-27.9c-1.2-4.7-2.8-9.3,1-13.3
				c3.5-3.7,6.5-1.8,6.1-7.2c-0.4-4.3,0.1-7.4,5.8-8.3c3-0.5,5.8,0,8.7,0c2.6,0,3.1-0.6,5.6-1.6c7.2-2.8,19.1-2,22.2,5.9
				c1.9,4.7-0.2,10.2-2.3,14.4C216.3,104.9,219.4,105.8,220.2,104.2L220.2,104.2z"/>
		</g>
		<g id="XMLID_335_">
			<path id="XMLID_336_" class="st3" d="M217.8,125.8c4.9-5.9,5.7-15.8,2.7-22.8c-2.9-6.9-10.4-10-18.4-9.4
				c-19.8,1.6-25.4,21.8-18.7,36.4c0.8,1.7,3.5,0.4,2.8-1.2c-5.5-12-1.8-29.1,14-32c7.7-1.4,15.3,1.1,17.8,8.3
				c2,6.1,1.2,14.2-2.9,19.2C213.9,125.7,216.6,127.2,217.8,125.8L217.8,125.8z"/>
		</g>
		<g id="XMLID_333_">
			<path id="XMLID_334_" class="st3" d="M194.8,95.1c-2.8,5.1-0.5,9.5,3.6,13.7c2.4,2.5,4.5,4.3,5,7.7c0.5,2.6,0.4,5.4,0.2,8
				c-0.1,1.8,3,1.9,3.2,0.2c0.3-4,0.6-9.1-1.7-12.9c-3.1-5.1-11.2-8.6-7.6-15.2C198.4,95.1,195.6,93.5,194.8,95.1L194.8,95.1z"/>
		</g>
		<g id="XMLID_331_">
			<path id="XMLID_332_" class="st3" d="M205.5,114.8c3-2.6,6.6-3.5,10.5-4.6c2.6-0.8,4.7-1.9,5.6-4.3c0.6-1.7-2.4-2.6-3.1-0.9
				c-0.9,2.4-4.3,2.7-6.7,3.4c-3.3,0.9-6.1,2.2-8.5,4.3C201.9,113.9,204.1,116.1,205.5,114.8L205.5,114.8z"/>
		</g>
		<g id="XMLID_329_">
			<path id="XMLID_330_" class="st3" d="M178.3,138.6c8.8-11.5,28.9,2.5,39.8,5.8c10.2,3.1,17.7-3.2,16.1-12.4
				c-0.4,0.5-0.8,1.1-1.1,1.6c4.9-1.5,10.5-4.5,11.6-9.3c0.6-2.9-0.6-6-2.3-8.6c-0.6-1-1.3-2-2.2-2.9c-1-1-0.9-1.3-0.7-0.4
				c-0.8-3.2-0.2-5.9-2.5-8.9c-3.9-5-10.8-5.4-16.9-5c-2,0.1-1.2,2.9,0.8,2.7c5.8-0.4,12.3,0.3,14.7,5.8c0.8,1.8,0.2,3.7,0.8,5.4
				c0.6,1.9,2.6,3.3,3.7,5.1c3.8,6.5-0.9,11.4-7.6,13.4c-0.9,0.3-1.3,0.8-1.1,1.6c1.1,5.8-3.1,11.2-10.2,9.7
				c-5.8-1.2-11.3-4.3-16.7-6.5c-9.6-3.9-21.8-7.6-28.6,1.3C174.4,138.5,177.1,140.1,178.3,138.6L178.3,138.6z"/>
		</g>
		<g id="XMLID_327_">
			<path id="XMLID_328_" class="st3" d="M182,159.8c-5.3,12.7-21.3,8.5-32.3,3.4c-9.8-4.6-19.9-7.6-30.8-8.7c0.5,0.6,1,1.2,1.5,1.8
				c4.3-9.4,7.9-19.3,9.8-29.5c2.5-13.2,21-25,36.2-16.8c1.8,1,3.4-1.4,1.6-2.3c-13.2-7.1-30.7-0.6-37.8,9.9
				c-4.3,6.4-4.4,15.1-6.8,22.2c-1.8,5.3-3.8,10.5-6.1,15.6c-0.4,0.9,0.6,1.7,1.5,1.8c6.8,0.7,13.7,2.1,20.2,4.3
				c6.6,2.3,12.5,5.9,19.3,7.9c11.5,3.3,22.4,1.6,26.8-8.8C185.8,159,182.7,158.1,182,159.8L182,159.8z"/>
		</g>
		<g id="XMLID_325_">
			<path id="XMLID_326_" class="st3" d="M161.6,138.1c-7.8-2.5-16.8-1.2-22.4,3.9c-1.4,1.2,0.8,3.4,2.2,2.1
				c4.9-4.4,12.6-5.5,19.4-3.3C162.7,141.4,163.6,138.7,161.6,138.1L161.6,138.1z"/>
		</g>
		<g id="XMLID_323_">
			<path id="XMLID_324_" class="st3" d="M161.5,132.9c-3.6-0.6-7.6-1.4-11.3-1.1c-2,0.2-1.2,2.9,0.8,2.7c3.3-0.3,7.1,0.6,10.4,1.1
				C163.5,136,163.5,133.2,161.5,132.9L161.5,132.9z"/>
		</g>
		<g id="XMLID_321_">
			<path id="XMLID_322_" class="st3" d="M232.4,138.9c15.8,1.6,26.1,17.3,21.4,30.2c-2.3,6.3-9.2,11.5-16.5,13.3
				c-2.4,0.6-5.6,0-7.9,0.8c-1.4,0.5-4.2,3.3-6.1,4.3c-6.3,3.3-13.7,4.3-21.2,3.8c-8.1-0.6-19.7-2.7-27.2,0.7
				c0.7,0.2,1.4,0.4,2.2,0.6c-3.6-7.7-7.5-15.2-9.9-23.2c-0.5-1.8-3.6-1.2-3.1,0.6c2.5,8.3,6.5,15.9,10.2,23.9
				c0.3,0.7,1.5,0.9,2.2,0.6c3.5-1.6,8.5-1.3,12.3-1.3c9.5,0.1,18.9,2.1,28.2-0.2c4.8-1.2,9.8-3.3,13.3-6.5c0.3-0.3,0.7-0.7,1.1-1
				c1.3-0.9-1.6,0.3-0.7,0.2c1.5-0.1,3,0.1,4.5-0.1c13.5-1.6,23.7-12.4,22.8-24.4c-0.9-12.5-11-23.6-25.6-25.1
				C230.4,135.9,230.4,138.7,232.4,138.9L232.4,138.9z"/>
		</g>
		<g id="XMLID_316_">
			<path id="XMLID_320_" class="st3" d="M237.7,107c5.7-4.5,16.5,2.9,21.8,5.8c3.5,1.9,9.1,6.1,13.5,5c-0.6-0.7-1.2-1.4-1.8-2.1
				c-4.8,5.1-5.8,11.6-4.7,18.2c1.8,11.2,1.8,20.5-10.9,25.9c-1.8,0.8-0.2,3.3,1.6,2.5c9.2-3.9,14-10.4,13.6-19.6
				c-0.3-9.1-4.2-17.7,3.1-25.4c0.9-0.9-0.5-2.4-1.8-2.1c-2.8,0.7-7.1-2.4-9.4-3.7c-3.6-2-7.2-4-11-5.7c-5.2-2.3-11.6-4.4-16.3-0.7
				C234,106.1,236.3,108.2,237.7,107L237.7,107z"/>
		</g>
		<g id="XMLID_314_">
			<path id="XMLID_315_" class="st3" d="M200.7,81.3c5.5-12.6,24.8-1.5,34.4-7.3c-0.9-0.5-1.8-1-2.6-1.5c-4.6,12,15.1,21.4,15,33.3
				c0,1.8,3.2,2,3.2,0.2c0.1-6.2-4.1-11.8-8.1-16.8c-3.5-4.4-9.1-10.1-7-15.8c0.5-1.4-1.5-2.2-2.6-1.5c-2.4,1.5-7,0.6-9.8,0.5
				c-3.7-0.2-7.3-0.4-11-0.1c-6.5,0.5-12,2.6-14.4,8.1C196.9,82,199.9,82.9,200.7,81.3L200.7,81.3z"/>
		</g>
		<g id="XMLID_312_">
			<path id="XMLID_313_" class="st3" d="M203.5,76.1c-9.9-14.2-38.4-16.7-48.1-2.6c-1.3,1.8-2,3.9-3.1,5.7c-1.3,2.1-2.5,2.5-4.8,3.6
				c-2.9,1.3-5.2,3.2-7.1,5.5c-5.4,6.7-6.7,15.4-1.9,23c1,1.6,3.8,0.4,2.8-1.2c-4.7-7.5-2.6-16.7,3.9-22.4c3.7-3.2,7.5-2.6,9.9-7.2
				c4.5-8.3,9.9-13.3,20.9-13.5c9.3-0.1,19.5,2.8,24.7,10.3C201.8,79,204.5,77.7,203.5,76.1L203.5,76.1z"/>
		</g>
		<g id="XMLID_310_">
			<path id="XMLID_311_" class="st3" d="M218.4,122.2c3.1,0.4,6.8,2,8.9,3.6c1.6,1.2,3.9-0.6,2.3-1.8c-3.2-2.4-7.1-4-11.2-4.6
				C216.4,119.1,216.4,121.9,218.4,122.2L218.4,122.2z"/>
		</g>
		<g id="XMLID_308_">
			<path id="XMLID_309_" class="st3" d="M209.6,156.2c3.5,4.4,5,10.1,4.2,15.3c-0.3,1.8,2.9,1.9,3.2,0.2c0.8-5.6-0.8-11.9-4.6-16.7
				C211.2,153.4,208.4,154.7,209.6,156.2L209.6,156.2z"/>
		</g>
		<g id="XMLID_175_">
			<path id="XMLID_176_" class="st3" d="M214.3,153c2.8,2.1,4.1,5.9,5,8.9c0.5,1.8,3.6,1.2,3.1-0.6c-1-3.4-2.6-7.8-5.8-10.2
				C215,149.9,212.7,151.8,214.3,153L214.3,153z"/>
		</g>
		<g id="XMLID_167_">
			<path id="XMLID_168_" class="st3" d="M232.8,135.9c6.6,1.1,15.5,0.1,18.1-6.1c0.7-1.7-2.4-2.5-3.1-0.9c-0.1,0.3,0.2-0.2,0,0
				c-0.2,0.3-0.3,0.5-0.5,0.8c-0.6,0.8-1.3,1.4-2.1,2c-3.5,2.3-8.2,2.1-12.4,1.5C230.8,132.8,230.8,135.6,232.8,135.9L232.8,135.9z"
				/>
		</g>
		<g id="XMLID_161_">
			<path id="XMLID_162_" class="st3" d="M225.4,99.8c-0.2-4.9,2.4-10,4.6-14.3c0.8-1.6-1.9-3.2-2.7-1.6c-2.4,4.7-5.3,10.3-5.1,15.7
				C222.3,101.4,225.5,101.6,225.4,99.8L225.4,99.8z"/>
		</g>
		<g id="XMLID_159_">
			<path id="XMLID_160_" class="st3" d="M223.1,92c0.4-1.9,0.8-3.7,1.2-5.6c0.4-1.7-2.6-2.6-3.1-0.9c-0.4,1.9-0.8,3.7-1.2,5.6
				C219.7,92.9,222.7,93.8,223.1,92L223.1,92z"/>
		</g>
		<g id="XMLID_149_">
			<path id="XMLID_150_" class="st3" d="M169.5,98.5c-5.1-1-9.9-3.7-13.6-7c-1.5-1.3-3.8,0.5-2.3,1.8c4.1,3.6,9.4,6.7,15,7.8
				C170.7,101.5,171.6,98.9,169.5,98.5L169.5,98.5z"/>
		</g>
		<g id="XMLID_147_">
			<path id="XMLID_148_" class="st3" d="M172.6,95.6c-3.4-1.1-6.7-2.9-9.4-5c-1.6-1.2-3.8,0.6-2.3,1.8c3.2,2.5,6.9,4.5,10.9,5.8
				C173.7,98.8,174.6,96.2,172.6,95.6L172.6,95.6z"/>
		</g>
		<g id="XMLID_145_">
			<path id="XMLID_146_" class="st3" d="M175.8,94.3c-1.1-0.5-2.2-1.1-3.1-1.9c-0.3-0.3-0.6-0.5-0.8-0.8c-0.1-0.1-0.5-0.6-0.2-0.2
				c-0.5-0.6-1.3-1-2.2-0.6c-0.7,0.3-1.1,1.2-0.6,1.9c1.5,1.9,3.6,3.3,6,4.3C176.9,97.7,177.7,95,175.8,94.3L175.8,94.3z"/>
		</g>
		<g id="XMLID_135_">
			<path id="XMLID_136_" class="st3" d="M187.8,104c0.6-3.7-0.8-7.7-3.7-10.7c-1.4-1.4-3.6,0.4-2.3,1.8c2.1,2.1,3.4,5.2,2.9,7.9
				C184.4,104.9,187.5,105.8,187.8,104L187.8,104z"/>
		</g>
		<g id="XMLID_133_">
			<path id="XMLID_134_" class="st3" d="M191.7,100.2c1.6-2.5,2.2-5.6,2.2-8.5c0-1.8-3.1-2-3.2-0.2c-0.1,2.4-0.5,5-1.8,7.1
				C188.1,100.2,190.8,101.7,191.7,100.2L191.7,100.2z"/>
		</g>
		<g id="XMLID_74_">
			<path id="XMLID_100_" class="st3" d="M219.9,120.1c1.8-0.3,3.9,0.3,5.6,0.8c2,0.5,2.8-2.1,0.9-2.6c-2.3-0.6-4.9-1.2-7.3-0.9
				C217.1,117.6,217.9,120.4,219.9,120.1L219.9,120.1z"/>
		</g>
	</g>
</g>
<text id="XMLID_413_" transform="matrix(1.8561 0 0 2 50.1797 159.8378)" class="st2 st4 st5">D</text>
<g>
	<text transform="matrix(2.067 0 0 2 286.5684 154.7383)" class="st2 st4 st6">G</text>
</g>
</svg>
