<?xml version="1.0" encoding="utf-8"?>
<!-- Generator: Adobe Illustrator 21.0.0, SVG Export Plug-In . SVG Version: 6.00 Build 0)  -->
<svg version="1.1" id="Layer_1" xmlns="http://www.w3.org/2000/svg" xmlns:xlink="http://www.w3.org/1999/xlink" x="0px" y="0px"
	 viewBox="0 0 506 360" style="enable-background:new 0 0 506 360;" xml:space="preserve">
<style type="text/css">
	.st0{fill:#383736;}
	.st1{fill:#FFFFFF;}
	.st2{fill:#007094;}
	.st3{font-family:'Nickainley-Normal';}
	.st4{font-size:45.5796px;}
	.st5{font-size:39.5084px;}
</style>
<g>
	<path class="st0" d="M55,183.3c0-15.8,0-31.5,0-47.3c0-2.2-0.1-4.4,0.1-6.6c0.4-3,2.1-4.8,5.4-5.2c3.4-0.4,6.9-0.2,10.4-0.2
		c13.5-0.1,27,0,40.5,0c1.7,0,3.4,0,5.1,0.1c3.6,0.2,6.7-1,9.7-2.8c5-3,9.6-6.7,14.8-9.4c5.2-2.8,9.8-6.6,15.1-9.3
		c4.1-2.1,7.5-5.2,11.7-7.2c4.1-2,7.9-4.7,11.8-7.2c1.7-1.1,3.2-2.6,5.1-3.4c3.1-1.2,5.4-3.6,8.4-4.9c6.1-2.7,11.4-6.6,17-10.1
		c3.2-2,6.5-3.8,9.5-6.1c2.6-1.9,5.5-3.2,8.2-4.9c4.9-3.1,9.7-6.2,14.6-9.2c2.6-1.7,5.2-3.5,8.2-4.7c1.5-0.5,2.7-0.5,4,0.2
		c5.6,3.1,10.9,6.5,16.1,10.1c0.5,0.3,1,0.7,1.6,0.9c4.5,1.6,8.1,4.5,12,7c5.9,3.8,11.7,7.7,17.8,11.2c1.4,0.8,2.4,2.1,4,2.7
		c3.8,1.4,6.6,4,10,6.1c1.9,1.1,3.7,2.3,5.6,3.5c2.5,1.5,5,2.9,7.2,4.7c0.4,0.3,0.8,0.6,1.3,0.8c4.2,1.7,8,4.2,11.5,6.7
		c4.3,3.1,9.1,5.5,13.3,8.7c2.6,2,5.6,3.6,8.5,5.2c5.3,2.9,10.2,6.6,15.6,9.3c2.3,1.2,4.6,1.9,7.2,1.9c16.9,0,33.8,0,50.7,0.1
		c1.6,0,3.3,0,4.9-0.1c4.2-0.1,7,2.4,7,6.3c0,21.1,0.1,42.2,0,63.3c-0.1,8.8-0.1,17.6-0.1,26.4c0,4.6,0.2,9.3,0.2,13.9
		c0,0.9,0,1.9,0,2.8c-0.4,4.5-2.9,6.7-7.7,6.7c-9.9,0-19.8-0.1-29.7-0.1c-6.9,0-13.7,0.1-20.6,0.1c-2.9,0-5.7,0.7-7.9,2.5
		c-2.1,1.7-4.6,2.9-6.9,4.2c-5.2,2.9-10.2,6.2-15.4,9.3c-3.9,2.3-7.7,4.9-12,6.8c-2.9,1.4-5.7,3.3-8.5,5.2c-2.5,1.7-5.1,3.3-7.9,4.6
		c-2.6,1.2-4.9,2.8-7.2,4.5c-2.3,1.6-4.9,2.7-7.2,4.3c-1.9,1.3-4,2.3-5.8,3.8c-0.8,0.7-1.9,1.3-3,1.3c-1.4,0-2,1.2-3,1.7
		c-2.7,1.5-5.5,3-8,4.7c-2.4,1.6-4.7,3.3-7.2,4.7c-5,2.9-10.1,5.6-15.1,8.5c-1.7,1-3.1,2.4-4.9,3.1c-4.1,1.8-7.3,4.7-11.2,6.8
		c-1.8,1-3.5,1.9-5.4,2.7c-1.7,0.8-3.4,0.7-5.1-0.1c-4.1-1.9-8.1-4-11.5-6.9c-0.8-0.7-1.6-1.3-2.6-1.8c-4.1-1.9-7.6-4.9-12-6.5
		c-0.9-0.3-1.7-0.8-2.5-1.4c-6.2-4.4-13-8-19.6-11.9c-1.5-0.9-2.7-2.2-4.3-2.9c-2.9-1.2-5.3-3.1-7.9-4.7c-5-3.1-10.4-5.7-15.3-8.9
		c-3-2-5.9-4.3-9.5-5.3c-1-0.3-1.5-1.3-2.3-1.8c-4.2-2.5-8.1-5.4-12.6-7.4c-1.3-0.6-2.2-1.8-3.6-2.4c-8.3-3.9-15.7-9.3-23.6-13.9
		c-3.5-2.1-7-3.2-11.3-3.1c-16.4,0.2-32.8,0.1-49.1,0.1c-3,0-5.8-1.8-6.3-4.1c-0.2-1.2-0.3-2.5-0.3-3.8c0-9.8,0-19.5,0-29.3
		C55,198.6,55,190.9,55,183.3C55,183.3,55,183.3,55,183.3z"/>
	<path class="st0" d="M330.5,146.3c0,0.3,0,0.5,0,0.8c-0.1,0.5,0.2,1.1-0.5,1.4c-0.3,0.1-0.6-0.1-0.6-0.4c-0.2-0.6-0.2-1.3,0.6-1.6
		C330.1,146.4,330.3,146.4,330.5,146.3L330.5,146.3z"/>
	<path class="st0" d="M388.7,181.8c0-0.3,0-0.5,0-0.8c0-0.4-0.1-1,0.4-1.2c0.3-0.1,0.5,0.1,0.6,0.4c0.2,0.6,0.3,1.1-0.4,1.5
		C389.1,181.7,388.9,181.7,388.7,181.8L388.7,181.8z"/>
	<path class="st0" d="M405.7,179.3c0,0.4,0,0.8,0,1.3c-0.6,0-1.2,0-1.7,0C404.3,179.8,404.7,179.2,405.7,179.3L405.7,179.3z"/>
	<path class="st0" d="M395.1,182.2c0,0.1,0.2,0.2,0.1,0.2c0,0.2-0.2,0.3-0.4,0.1c-0.1,0-0.1-0.2,0-0.3
		C394.9,182.3,395,182.3,395.1,182.2z"/>
	<path class="st0" d="M333.3,133c0.1,0.7,0.6,1.2,1.4,1.3c0,0.4,0,0.9,0,1.3l0,0c-0.4,0-0.9,0.1-1.3,0.1c-3.1,0.2-3.1,0.2-2.8-2.6
		C331.4,133,332.3,133,333.3,133z"/>
	<path class="st0" d="M334.6,135.6c0.2,0,0.3,0,0.5,0.1c0.4,0.1,0.8,0.1,0.9,0.6c0,0.2-0.1,0.4-0.3,0.5c-0.6,0.1-0.8-0.2-0.9-0.7
		C334.7,135.8,334.6,135.7,334.6,135.6L334.6,135.6z"/>
	<path class="st0" d="M414.2,180.5c0.9,0,1.3,0.5,1.4,1.3C414.6,181.8,414.1,181.4,414.2,180.5z"/>
	<path class="st0" d="M405.7,179.3c0.1-0.4-0.1-1,0.6-1.1c0.1,0,0.2,0.1,0.2,0.2C406.7,179.1,406,179,405.7,179.3L405.7,179.3z"/>
	<path class="st0" d="M256.7,97.3c0.5,0,1,0,1.5,0.1c0.5,0.1,1.3,0.1,1.1,0.8c-0.2,0.8-0.9,0.6-1.5,0.5
		C257,98.5,256.9,97.8,256.7,97.3C256.7,97.2,256.7,97.3,256.7,97.3z"/>
	<path class="st0" d="M261.2,97.2c-0.2,0-0.4,0-0.7,0c-0.3,0-0.7-0.2-0.7-0.5c0-0.2,0.1-0.4,0.4-0.4c0.4-0.1,0.6,0.1,0.8,0.4
		C261.1,96.9,261.1,97.1,261.2,97.2L261.2,97.2z"/>
	<path class="st0" d="M383.8,207.5c0,0.3-0.2,0.4-0.4,0.4c-0.2,0-0.5-0.1-0.5-0.3c0-0.3,0.2-0.4,0.4-0.4
		C383.5,207.2,383.7,207.3,383.8,207.5z"/>
	<path class="st0" d="M330.5,195.1c0-0.4,0-0.9,0-1.3c0.9,0.1,1.3,0.5,1.4,1.3C331.4,195.1,331,195.1,330.5,195.1z"/>
	<path class="st0" d="M254,140.9c0.5,0,0.9,0,1.4,0c-0.1,0.5-0.1,1-0.8,1C254.1,141.8,254.1,141.3,254,140.9z"/>
	<path class="st0" d="M288.6,136.6c-0.2-0.1-0.4-0.2-0.4-0.4c0-0.3,0.2-0.5,0.6-0.4c0.2,0.1,0.4,0.2,0.3,0.5
		C289.1,136.5,288.9,136.6,288.6,136.6z"/>
	<path class="st0" d="M279.5,121c0.5,0,0.9,0,1.4,0c-0.1,0.4-0.1,0.9-0.6,1C279.6,122,279.7,121.4,279.5,121z"/>
	<path class="st0" d="M265.2,160.9c1-0.1,1.4,0.4,1.4,1.3C265.8,162.1,265.2,161.7,265.2,160.9z"/>
	<path class="st0" d="M331.9,181.8c-0.8-0.1-1.3-0.5-1.4-1.3C331.4,180.5,331.8,181,331.9,181.8z"/>
	<path class="st0" d="M268,123.8c-0.1,0.4-0.1,0.9-0.6,1c-0.7,0.1-0.7-0.5-0.8-1C267.1,123.8,267.5,123.8,268,123.8z"/>
	<path class="st0" d="M357.4,177.9c0,0.3,0,0.7,0,1c-0.3-0.1-0.8-0.1-0.8-0.4C356.5,178,357.1,178.1,357.4,177.9z"/>
	<path class="st0" d="M302.3,134.3c-1.1-0.1-2.1,0.1-2.9,0.9c-0.4,0.4-1,0.4-1.6,0.3c-0.4-1.3,1.5-1.4,1.4-2.6
		C300.4,133.2,302,132.4,302.3,134.3z"/>
	<path class="st0" d="M303.6,220c0.4,0,0.7,0,1.1,0c-0.1,0.3,0,0.8-0.5,0.8C303.7,220.8,303.7,220.4,303.6,220z"/>
	<path class="st0" d="M288,148.8c0.9,0,1.4,0.5,1.4,1.3C288.6,150.1,288,149.7,288,148.8z"/>
	<path class="st0" d="M225.8,138.4c0.8,0.1,1.2,0.6,1.4,1.3C226.4,139.5,225.9,139.2,225.8,138.4z"/>
</g>
<g id="XMLID_2_">
	<g id="XMLID_128_">
		<path id="XMLID_129_" class="st1" d="M312.1,130.9c5.4-4.6,17.7-0.5,24.2,0.5c7.7,1.2,15.4,1.7,22.2-1.6c-1-0.5-2-1.1-3-1.6
			c0.8,11.5-6.9,21.7-18,27.1c-2.2,1.1-0.2,4.1,2,3.1c12.3-5.9,20.9-17.2,20-30c-0.1-1.2-1.6-2.3-3-1.6c-8.8,4.3-19.7,1.2-29.2-0.3
			c-6.1-1-13.3-2.1-18,1.9C307.6,129.9,310.4,132.5,312.1,130.9L312.1,130.9z"/>
	</g>
	<g id="XMLID_126_">
		<path id="XMLID_127_" class="st1" d="M183.2,126.5c-7.8-3.1-15.6-3.3-23.5-1.4c-6.6,1.6-13.1,5.6-20.1,5.9
			c-1.5,0.1-2.8,1.7-1.4,2.8c12.1,9.9,14.5,26.1,31.7,31.2c2.5,0.7,3.5-2.5,1.1-3.2c-15.7-4.7-18.6-20.9-29.9-30.2
			c-0.5,0.9-1,1.9-1.4,2.8c5.3-0.2,10-2.5,14.7-4.1c9.1-3.1,18.2-4.4,27.8-0.6C184.5,130.7,185.6,127.5,183.2,126.5L183.2,126.5z"/>
	</g>
	<g id="XMLID_124_">
		<path id="XMLID_125_" class="st1" d="M175.6,211.2c-8.7,3.4-14,8.9-15.4,17.1c-1.4,7.8,2.4,18.3-2.7,25c-1,1.4,1,3.3,2.7,2.5
			c4.6-2.2,10.3-4,15.8-3.8c6.4,0.2,11.9,2.6,18.4,2.3c11-0.5,22.5-4.5,27.3-13.2c1.1-1.9-2.4-3.9-3.4-1.9
			c-5.7,10.4-22.2,13.7-34.8,10.8c-8.9-2.1-17.4-0.9-25.2,2.9c0.9,0.8,1.8,1.7,2.7,2.5c3.7-4.9,2.9-11.2,2.8-17
			c-0.2-10.7,1.7-19.3,13.8-24C179.9,213.4,177.9,210.3,175.6,211.2L175.6,211.2z"/>
	</g>
	<g id="XMLID_122_">
		<path id="XMLID_123_" class="st1" d="M199.2,251.2c-2.3,13.3,22.3,17.3,29.1,26.8c0.8,1.1,2.6,1.3,3.4,0.2
			c1.8-2.4,3.8-4.7,6.2-6.6c3.3-2.9,7.5-3.6,11.2-5.7c4.6-2.6,6.9-8.1,7.8-12.6c0.4-2.1-3.4-3.2-3.8-1.1c-0.4,1.8-1,3.6-1.8,5.2
			c-2.3,4.7-6.2,5.6-10.9,8c-5,2.5-9,6.8-12.1,10.9c1.1,0.1,2.3,0.1,3.4,0.2c-3.3-4.6-8.2-7.6-13.4-10.5
			c-5.3-2.9-16.5-7.2-15.4-13.7C203.4,250.1,199.5,249,199.2,251.2L199.2,251.2z"/>
	</g>
	<g id="XMLID_120_">
		<path id="XMLID_121_" class="st1" d="M334.7,211.9c7.8,4.7,9.7,13.8,11.8,21c1.3,4.4,2.2,10.3,6.3,13.6c0-0.8,0-1.6,0-2.4
			c-1.3,1.1-5.7,1.3-7.9,1.4c-11.9,0.2-24.2-3-35.6-6.1c-2.5-0.7-3.6,2.6-1.1,3.2c12.3,3.3,25.9,6.9,38.7,6.2
			c2.8-0.2,6.6-0.4,8.7-2.1c0.7-0.6,0.9-1.7,0-2.4c-5.2-4.3-5.6-14-7.6-19.6c-2.1-6-5-11.9-11.3-15.7
			C334.6,207.8,332.5,210.6,334.7,211.9L334.7,211.9z"/>
	</g>
	<g id="XMLID_118_">
		<path id="XMLID_119_" class="st1" d="M139.1,134.4c13.3,2.6,26.3,7.6,38.4,13.3c2.3,1.1,4.4-1.8,2.1-2.8
			c-12.4-5.8-25.7-11-39.4-13.7C137.7,130.7,136.6,133.9,139.1,134.4L139.1,134.4z"/>
	</g>
	<g id="XMLID_116_">
		<path id="XMLID_117_" class="st1" d="M161,255.3c11.5-13.1,28.2-23.3,45.3-30.6c2.3-1,0.3-4-2-3.1c-17.7,7.6-34.9,18.2-46.8,31.7
			C156.1,255.1,159.5,257,161,255.3L161,255.3z"/>
	</g>
	<g id="XMLID_114_">
		<path id="XMLID_115_" class="st1" d="M232,276.9c-2.5-7.1-4.8-15.3-3.2-22.5c0.5-2.1-3.4-3.2-3.8-1.1c-1.7,7.9,0.5,16.7,3.2,24.3
			C228.9,279.7,232.7,279,232,276.9L232,276.9z"/>
	</g>
	<g id="XMLID_112_">
		<path id="XMLID_113_" class="st1" d="M355.2,244c-10.4-4.4-20.4-10.5-27.8-18.3c-1.7-1.8-4.5,0.5-2.9,2.2c7.6,8,18,14.4,28.6,18.9
			C355.5,247.9,357.5,245,355.2,244L355.2,244z"/>
	</g>
	<g id="XMLID_110_">
		<path id="XMLID_111_" class="st1" d="M356.2,127c-9.7,8.3-25,12.6-38.1,15.9c-2.4,0.6-1.4,4,1,3.3c13.7-3.5,29.6-8,39.9-16.7
			C360.7,128.1,358,125.5,356.2,127L356.2,127z"/>
	</g>
	<g id="XMLID_108_">
		<path id="XMLID_109_" class="st1" d="M161.5,190.1c-7.7,1.8-13,5.4-14,12.6c-1,7.3,4,15.5,0.9,22.4c-0.5,1.1,0.7,2.1,1.9,2.3
			c4.7,0.6,9.6,0.6,13.9-1c2.3-0.9,0.3-3.9-2-3.1c-3.6,1.4-7.9,1.2-11.9,0.7c0.6,0.8,1.3,1.5,1.9,2.3c5.1-11.6-9.9-27.9,10.3-32.7
			C164.9,192.9,163.9,189.5,161.5,190.1L161.5,190.1z"/>
	</g>
	<g id="XMLID_106_">
		<path id="XMLID_107_" class="st1" d="M152,226.5c4.3-5.4,8.5-10.8,12.3-16.4c1.3-1.9-2.2-3.8-3.4-1.9c-3.8,5.6-8,11.1-12.3,16.4
			C147.2,226.4,150.6,228.3,152,226.5L152,226.5z"/>
	</g>
	<g id="XMLID_104_">
		<path id="XMLID_105_" class="st1" d="M197.1,226.9c3.9,7.2,5.8,16.8,4.6,23.7c-0.4,2.1,3.5,3.2,3.8,1.1c1.5-8.7-0.5-18.1-5-26.3
			C199.5,223.4,196,224.9,197.1,226.9L197.1,226.9z"/>
	</g>
	<g id="XMLID_102_">
		<path id="XMLID_103_" class="st1" d="M186.5,231.6c0.7,6.7-1.3,13.6-3.7,19.8c-0.8,2.1,3,3.1,3.8,1.1c2.5-6.5,4.6-13.7,3.9-20.7
			C190.3,229.6,186.3,229.4,186.5,231.6L186.5,231.6z"/>
	</g>
	<g id="XMLID_99_">
		<path id="XMLID_101_" class="st1" d="M196.2,226.6c-9.3-4-19.9-6.2-29.9-8.3c-2.5-0.5-3.6,2.7-1.1,3.2c9.6,2,19.9,4,28.9,7.9
			C196.4,230.5,198.5,227.7,196.2,226.6L196.2,226.6z"/>
	</g>
	<g id="XMLID_97_">
		<path id="XMLID_98_" class="st1" d="M176.8,237.8c-5.4-1.4-11.4-1.8-16.6-0.3c-2.4,0.7-0.4,3.8,2,3.1c-0.9,0.3,0.6-0.1,0.8-0.2
			c0.9-0.2,1.8-0.3,2.7-0.4c3.4-0.3,6.7,0.1,10,1C178.2,241.7,179.3,238.4,176.8,237.8L176.8,237.8z"/>
	</g>
	<g id="XMLID_95_">
		<path id="XMLID_96_" class="st1" d="M226.9,257.5c7,0.9,14.1,4,19.6,8c2,1.5,4.9-0.8,2.9-2.2c-6.4-4.7-14.2-8.1-22.4-9.2
			C224.4,253.8,224.4,257.2,226.9,257.5L226.9,257.5z"/>
	</g>
	<g id="XMLID_93_">
		<path id="XMLID_94_" class="st1" d="M225.9,256.6c-5.3,1.3-10.3,4.1-13.3,8.2c-1.3,1.8,2.1,3.7,3.4,1.9c2.4-3.3,6.6-5.7,10.9-6.7
			C229.3,259.4,228.4,256,225.9,256.6L225.9,256.6z"/>
	</g>
	<g id="XMLID_91_">
		<path id="XMLID_92_" class="st1" d="M223.8,245.7c-4.6-0.1-8.7,3.4-11.8,5.8c-2.9,2.3-5.7,4.7-8.2,7.3c-1.6,1.6,1.1,4.2,2.8,2.6
			c2-2,4.2-3.9,6.4-5.8c2.5-2.1,6.9-6.6,10.8-6.5C226.3,249.2,226.3,245.8,223.8,245.7L223.8,245.7z"/>
	</g>
	<g id="XMLID_89_">
		<path id="XMLID_90_" class="st1" d="M329.7,229.8c3.4-4.2,9.5-7.1,15.8-6.3c2.5,0.3,2.6-3.1,0-3.4c-7.7-1-15.1,2.7-19.2,7.8
			C324.9,229.7,328.3,231.6,329.7,229.8L329.7,229.8z"/>
	</g>
	<g id="XMLID_87_">
		<path id="XMLID_88_" class="st1" d="M329.2,230.5c-3.8,4.2-4.2,10.2-2.9,15.5c0.5,2.2,4.4,1.5,3.9-0.7c-1-4.4-0.6-9.4,2.5-12.8
			C334.2,230.7,330.7,228.8,329.2,230.5L329.2,230.5z"/>
	</g>
	<g id="XMLID_85_">
		<path id="XMLID_86_" class="st1" d="M334.9,235.4c-1.1,3.8-0.5,8.1,0.9,11.9c0.8,2.1,4.6,1.4,3.9-0.7c-1.2-3.2-1.9-6.9-0.9-10.1
			C339.3,234.3,335.5,233.2,334.9,235.4L334.9,235.4z"/>
	</g>
	<g id="XMLID_83_">
		<path id="XMLID_84_" class="st1" d="M343.1,240.9c1.9-1,4.7-1,6.9-1.1c2.5,0,2.6-3.4,0-3.4c-2.9,0-6.5,0.1-8.9,1.4
			C339,239,341,242.1,343.1,240.9L343.1,240.9z"/>
	</g>
	<g id="XMLID_81_">
		<path id="XMLID_82_" class="st1" d="M160.5,212.1c1.5,1,2.5,2.7,3.3,4.2c0.5,0.9,1,1.8,1.3,2.6c0.9,2.1,4.7,1.4,3.9-0.7
			c-1.3-3.2-3.2-6.7-6.4-8.9C160.5,207.9,158.5,210.7,160.5,212.1L160.5,212.1z"/>
	</g>
	<g id="XMLID_79_">
		<path id="XMLID_80_" class="st1" d="M156.9,215.5c1.4,2.9,1.6,6.5,1.9,9.6c0.2,2.2,4.2,2.4,4,0.2c-0.3-3.7-0.7-7.7-2.4-11.3
			C159.4,211.9,155.9,213.5,156.9,215.5L156.9,215.5z"/>
	</g>
	<g id="XMLID_77_">
		<path id="XMLID_78_" class="st1" d="M161.6,210.6c-3.9-1.6-8.6-1-12.5-0.1c-2.4,0.6-1.4,3.9,1,3.3c2.6-0.6,6.8-1.5,9.5-0.4
			C161.9,214.4,164,211.6,161.6,210.6L161.6,210.6z"/>
	</g>
	<g id="XMLID_75_">
		<path id="XMLID_76_" class="st1" d="M158.9,198.2c-3.5-0.6-7.6,1.2-10.5,2.6c-2.2,1-0.3,4.1,2,3.1c2.4-1.1,5.7-2.7,8.5-2.2
			c1.1,0.2,2-0.8,2-1.6C160.9,199,159.9,198.4,158.9,198.2L158.9,198.2z"/>
	</g>
	<g id="XMLID_70_">
		<path id="XMLID_71_" class="st1" d="M325.7,142.8c4.7,5.8,12.9,9.5,20.6,11.4c2.5,0.6,3.6-2.6,1.1-3.2c-6.5-1.7-14.1-4.7-18.2-9.7
			C327.7,139.5,324.2,141,325.7,142.8L325.7,142.8z"/>
	</g>
	<g id="XMLID_68_">
		<path id="XMLID_69_" class="st1" d="M334.2,140.7c0.2-3.6,2.2-7.1,4.6-9.9c1.5-1.7-1.9-3.6-3.4-1.9c-2.9,3.3-5,7.4-5.2,11.6
			C330.1,142.7,334.1,142.9,334.2,140.7L334.2,140.7z"/>
	</g>
	<g id="XMLID_66_">
		<path id="XMLID_67_" class="st1" d="M325.1,143.5c-0.7-4.9,1.2-10.1,3.6-14.4c1.1-1.9-2.3-3.9-3.4-1.9c-2.7,4.8-4.9,10.6-4.1,16.1
			C321.4,145.4,325.4,145.7,325.1,143.5L325.1,143.5z"/>
	</g>
	<g id="XMLID_64_">
		<path id="XMLID_65_" class="st1" d="M344.8,136.7c3.1,2.1,7.5,2.9,11.3,3.2c2.6,0.2,2.6-3.2,0-3.4c-3.1-0.2-6.7-0.9-9.3-2.6
			C344.8,132.5,342.7,135.4,344.8,136.7L344.8,136.7z"/>
	</g>
	<g id="XMLID_62_">
		<path id="XMLID_63_" class="st1" d="M172,143.6c-2,5.2-6,11.5-10.9,14.3c-2.1,1.2-0.2,4.2,2,3.1c6.5-3.6,10.5-10.1,12.8-16.2
			C176.6,142.7,172.7,141.6,172,143.6L172,143.6z"/>
	</g>
	<g id="XMLID_60_">
		<path id="XMLID_61_" class="st1" d="M169.1,141.5c-0.7-5.6-3.6-11.2-7.9-15.6c-1.7-1.7-4.6,0.5-2.9,2.2c3.6,3.7,6.2,8.5,6.8,13.2
			C165.4,143.4,169.4,143.7,169.1,141.5L169.1,141.5z"/>
	</g>
	<g id="XMLID_58_">
		<path id="XMLID_59_" class="st1" d="M160,137.2c-1.6-3.6-4.3-7.6-8.6-9.1c-2.4-0.9-3.5,2.4-1.1,3.2c-0.6-0.2,0,0,0.3,0.1
			c0.5,0.3,1,0.6,1.5,0.9c1.9,1.5,3.2,3.5,4.1,5.5C157,140,160.9,139.3,160,137.2L160,137.2z"/>
	</g>
	<g id="XMLID_56_">
		<path id="XMLID_57_" class="st1" d="M161.7,139.4c-0.8,1.9-3.9,3.6-5.7,4.8c-1.5,1.1-3.1,2.1-4.8,3.1c-2,1.2,0.7,3.8,2.8,2.6
			c1.9-1.2,3.8-2.4,5.6-3.7c2.2-1.5,4.9-3.3,5.9-5.7C166.3,138.5,162.5,137.4,161.7,139.4L161.7,139.4z"/>
	</g>
	<g id="XMLID_54_">
		<path id="XMLID_55_" class="st1" d="M180.1,138.7c-0.7-4.7-2.9-9.4-5.2-13.8c-1.1-2.1-4.5-0.5-3.5,1.5c2.1,4.1,4.1,8.5,4.8,13
			C176.6,141.6,180.5,140.9,180.1,138.7L180.1,138.7z"/>
	</g>
	<g id="XMLID_3_">
		<g id="XMLID_52_">
			<path id="XMLID_53_" class="st2" d="M215.9,156.4c-8.3,17.2-18.7,43.2,7.3,54.9c24.6,11.1,52.1,2.5,63.8-17.2
				c1.1-1.9-2.3-3.8-3.4-1.9c-10.9,18.4-37,27-59.9,15.6c-22.5-11.2-11.3-35.2-4-50.2C220.7,155.5,216.9,154.4,215.9,156.4
				L215.9,156.4z"/>
		</g>
		<g id="XMLID_50_">
			<path id="XMLID_51_" class="st2" d="M282.5,144.9c4.4-8.7,6.9-21.1-4.4-27.7c-6.1-3.5-13.7-4.5-20.5-3.2
				c-2.6,0.5-5.1,1.3-7.4,2.3c-1.3,0.6-4,1.3-1.8,1.1c-10.3,0.8-25.4-2.4-24.4,10.9c0.1,1.1,1,3.5,0.5,4.5c-0.5,0.9-1.4,0.5-2.4,1.1
				c-2.7,1.8-4.7,3.2-6.3,5.9c-2.5,4-2.5,7.7-1.5,12.2c3,13.1,7.9,25.8,10.9,38.9c0.5,2,3.8,1.6,3.9-0.3c0.3-7.3,6.6-12.9,14.4-14.8
				c6.3-1.5,12.8-2.6,19.1-4c7.5-1.6,13.5-1.6,19.5,3.5c1.9,1.6,4.7-0.7,2.9-2.2c-4.8-4.1-10-6.3-16.6-5.7
				c-4.6,0.4-8.9,1.7-13.3,2.7c-4.8,1.1-10,1.6-14.7,3c-8.6,2.5-14.9,9.4-15.3,17.4c1.3-0.1,2.6-0.2,3.9-0.3
				c-2.7-11.5-6.7-22.8-9.7-34.2c-1.5-5.7-3.5-11.4,1.3-16.3c4.3-4.5,8.2-2.3,7.6-8.8c-0.5-5.3,0.1-9.1,7.3-10.2
				c3.7-0.6,7.3,0.1,11,0c3.3-0.1,3.9-0.7,7.1-1.9c9-3.4,23.9-2.5,27.9,7.3c2.3,5.8-0.2,12.5-2.8,17.7
				C277.7,145.8,281.5,146.9,282.5,144.9L282.5,144.9z"/>
		</g>
		<g id="XMLID_48_">
			<path id="XMLID_49_" class="st2" d="M279.5,171.3c6.1-7.3,7.1-19.4,3.4-27.9c-3.7-8.5-13.1-12.3-23.1-11.5
				c-24.8,2-31.9,26.7-23.5,44.5c1,2.1,4.4,0.5,3.5-1.5c-6.9-14.7-2.2-35.7,17.6-39.2c9.6-1.7,19.3,1.4,22.3,10.2
				c2.6,7.4,1.5,17.4-3.6,23.5C274.6,171.2,278.1,173.1,279.5,171.3L279.5,171.3z"/>
		</g>
		<g id="XMLID_46_">
			<path id="XMLID_47_" class="st2" d="M250.6,133.7c-3.5,6.3-0.6,11.6,4.5,16.8c3,3.1,5.6,5.3,6.3,9.4c0.6,3.2,0.6,6.6,0.3,9.8
				c-0.2,2.2,3.8,2.4,4,0.2c0.4-4.9,0.7-11.2-2.2-15.8c-3.9-6.2-14-10.6-9.6-18.6C255.1,133.7,251.7,131.8,250.6,133.7L250.6,133.7z
				"/>
		</g>
		<g id="XMLID_44_">
			<path id="XMLID_45_" class="st2" d="M264.1,157.9c3.8-3.2,8.3-4.3,13.2-5.7c3.3-1,5.9-2.4,7-5.3c0.8-2.1-3-3.1-3.8-1.1
				c-1.2,2.9-5.4,3.3-8.5,4.2c-4.1,1.1-7.7,2.7-10.7,5.3C259.5,156.8,262.3,159.4,264.1,157.9L264.1,157.9z"/>
		</g>
		<g id="XMLID_42_">
			<path id="XMLID_43_" class="st2" d="M229.9,187c11-14,36.4,3.1,50,7.1c12.8,3.8,22.3-4,20.2-15.2c-0.5,0.7-1,1.3-1.4,2
				c6.2-1.8,13.2-5.5,14.5-11.4c0.8-3.6-0.8-7.3-2.9-10.5c-0.8-1.2-1.7-2.5-2.8-3.5c-1.3-1.2-1.1-1.6-0.9-0.5
				c-1-3.9-0.2-7.2-3.2-10.9c-4.9-6.1-13.6-6.6-21.2-6.1c-2.5,0.2-1.5,3.5,1,3.3c7.2-0.5,15.4,0.4,18.5,7.1c1,2.3,0.3,4.5,0.9,6.6
				c0.7,2.3,3.3,4.1,4.6,6.2c4.8,7.9-1.1,13.9-9.6,16.4c-1.1,0.3-1.6,1-1.4,2c1.3,7.2-3.9,13.7-12.8,11.9c-7.3-1.5-14.2-5.2-21-7.9
				c-12.1-4.8-27.4-9.3-35.9,1.5C225.1,186.9,228.5,188.8,229.9,187L229.9,187z"/>
		</g>
		<g id="XMLID_40_">
			<path id="XMLID_41_" class="st2" d="M234.6,213c-6.7,15.5-26.7,10.5-40.6,4.2c-12.3-5.6-25-9.3-38.7-10.7
				c0.6,0.8,1.3,1.5,1.9,2.3c5.4-11.6,9.9-23.7,12.3-36.1c3.1-16.2,26.4-30.6,45.4-20.6c2.2,1.2,4.3-1.7,2.1-2.8
				c-16.6-8.7-38.5-0.7-47.4,12.1c-5.4,7.8-5.5,18.5-8.5,27.2c-2.2,6.5-4.7,12.9-7.7,19.1c-0.5,1.1,0.7,2.1,1.9,2.3
				c8.5,0.8,17.3,2.6,25.3,5.3c8.3,2.8,15.7,7.3,24.2,9.6c14.5,4.1,28.1,2,33.6-10.7C239.3,212,235.5,211,234.6,213L234.6,213z"/>
		</g>
		<g id="XMLID_38_">
			<path id="XMLID_39_" class="st2" d="M209,186.4c-9.8-3-21.1-1.5-28.2,4.7c-1.8,1.5,1,4.1,2.8,2.6c6.2-5.4,15.9-6.7,24.3-4.1
				C210.4,190.4,211.4,187.2,209,186.4L209,186.4z"/>
		</g>
		<g id="XMLID_36_">
			<path id="XMLID_37_" class="st2" d="M208.8,180c-4.6-0.7-9.6-1.7-14.1-1.3c-2.5,0.2-1.5,3.6,1,3.3c4.2-0.4,9,0.7,13.1,1.4
				C211.3,183.8,211.3,180.4,208.8,180L208.8,180z"/>
		</g>
		<g id="XMLID_34_">
			<path id="XMLID_35_" class="st2" d="M297.9,187.4c19.9,2,32.8,21.2,26.9,37c-2.9,7.8-11.5,14.1-20.7,16.2c-3.1,0.7-7.1,0-9.9,1
				c-1.8,0.6-5.3,4.1-7.6,5.3c-8,4.1-17.2,5.3-26.6,4.6c-10.1-0.7-24.7-3.3-34.2,0.8c0.9,0.3,1.8,0.5,2.7,0.8
				c-4.5-9.5-9.4-18.6-12.5-28.5c-0.7-2.2-4.5-1.5-3.9,0.7c3.1,10.2,8.2,19.5,12.9,29.3c0.4,0.9,1.9,1.1,2.7,0.8
				c4.3-1.9,10.7-1.6,15.5-1.6c12,0.1,23.8,2.6,35.4-0.3c6-1.5,12.3-4.1,16.6-7.9c0.4-0.4,0.9-0.9,1.4-1.2c1.6-1.2-2,0.4-0.9,0.3
				c1.9-0.2,3.8,0.1,5.7-0.1c17-1.9,29.7-15.1,28.6-29.9c-1.2-15.3-13.9-28.9-32.1-30.7C295.4,183.7,295.3,187.1,297.9,187.4
				L297.9,187.4z"/>
		</g>
		<g id="XMLID_32_">
			<path id="XMLID_33_" class="st2" d="M304.6,148.3c7.2-5.5,20.7,3.5,27.3,7.1c4.4,2.3,11.5,7.4,16.9,6.2c-0.7-0.9-1.5-1.8-2.2-2.6
				c-6.1,6.3-7.3,14.2-5.9,22.3c2.3,13.7,2.3,25.1-13.7,31.7c-2.3,0.9-0.3,4,2,3.1c11.5-4.8,17.5-12.7,17.1-24
				c-0.4-11.1-5.2-21.7,3.9-31.1c1.1-1.1-0.7-3-2.2-2.6c-3.5,0.8-8.9-3-11.8-4.5c-4.6-2.4-9-4.9-13.8-7c-6.5-2.8-14.6-5.4-20.4-0.9
				C299.9,147.2,302.7,149.8,304.6,148.3L304.6,148.3z"/>
		</g>
		<g id="XMLID_30_">
			<path id="XMLID_31_" class="st2" d="M258,116.8c6.9-15.5,31.2-1.8,43.2-8.9c-1.1-0.6-2.2-1.2-3.3-1.8
				c-5.7,14.7,18.9,26.3,18.8,40.8c0,2.2,4,2.4,4,0.2c0.1-7.6-5.1-14.4-10.2-20.5c-4.4-5.4-11.5-12.4-8.8-19.3
				c0.7-1.8-1.9-2.7-3.3-1.8c-3,1.8-8.8,0.8-12.3,0.6c-4.6-0.2-9.2-0.4-13.8-0.1c-8.2,0.6-15.1,3.2-18.1,9.9
				C253.3,117.7,257.1,118.8,258,116.8L258,116.8z"/>
		</g>
		<g id="XMLID_28_">
			<path id="XMLID_29_" class="st2" d="M261.5,110.5c-12.4-17.4-48.2-20.4-60.4-3.2c-1.6,2.2-2.5,4.7-3.9,7
				c-1.7,2.6-3.2,3.1-6.1,4.4c-3.7,1.6-6.5,3.9-8.9,6.8c-6.8,8.2-8.4,18.8-2.4,28.2c1.3,2,4.7,0.5,3.5-1.5c-5.9-9.2-3.3-20.5,5-27.5
				c4.7-4,9.4-3.2,12.5-8.8c5.7-10.1,12.4-16.3,26.2-16.5c11.7-0.2,24.5,3.5,31,12.6C259.4,114,262.9,112.4,261.5,110.5L261.5,110.5
				z"/>
		</g>
		<g id="XMLID_26_">
			<path id="XMLID_27_" class="st2" d="M280.3,166.9c3.9,0.5,8.6,2.4,11.2,4.4c2,1.5,4.8-0.8,2.9-2.2c-4-3-8.9-4.9-14.1-5.6
				C277.8,163.1,277.8,166.5,280.3,166.9L280.3,166.9z"/>
		</g>
		<g id="XMLID_24_">
			<path id="XMLID_25_" class="st2" d="M269.2,208.5c4.4,5.4,6.3,12.4,5.3,18.8c-0.3,2.2,3.7,2.3,4,0.2c1.1-6.9-1-14.6-5.8-20.5
				C271.2,205.2,267.7,206.7,269.2,208.5L269.2,208.5z"/>
		</g>
		<g id="XMLID_22_">
			<path id="XMLID_23_" class="st2" d="M275.2,204.6c3.5,2.6,5.1,7.3,6.2,10.9c0.7,2.2,4.5,1.5,3.9-0.7c-1.3-4.2-3.2-9.5-7.2-12.5
				C276.1,200.9,273.2,203.2,275.2,204.6L275.2,204.6z"/>
		</g>
		<g id="XMLID_20_">
			<path id="XMLID_21_" class="st2" d="M298.4,183.8c8.3,1.3,19.5,0.1,22.7-7.5c0.9-2-3-3.1-3.8-1.1c-0.1,0.3,0.2-0.3,0,0.1
				c-0.2,0.3-0.4,0.6-0.6,0.9c-0.7,0.9-1.6,1.7-2.6,2.4c-4.4,2.8-10.3,2.6-15.6,1.8C295.8,179.9,295.8,183.4,298.4,183.8
				L298.4,183.8z"/>
		</g>
		<g id="XMLID_18_">
			<path id="XMLID_19_" class="st2" d="M289,139.4c-0.3-5.9,3-12.3,5.8-17.5c1-1.9-2.4-3.9-3.4-1.9c-3.1,5.8-6.7,12.6-6.4,19.2
				C285.2,141.4,289.2,141.6,289,139.4L289,139.4z"/>
		</g>
		<g id="XMLID_16_">
			<path id="XMLID_17_" class="st2" d="M286.2,130c0.5-2.3,1-4.6,1.5-6.9c0.5-2.1-3.3-3.2-3.8-1.1c-0.5,2.3-1.1,4.6-1.5,6.9
				C281.9,131,285.7,132.1,286.2,130L286.2,130z"/>
		</g>
		<g id="XMLID_14_">
			<path id="XMLID_15_" class="st2" d="M218.9,137.9c-6.4-1.3-12.4-4.6-17-8.6c-1.9-1.6-4.7,0.6-2.9,2.2c5.2,4.4,11.8,8.2,18.8,9.6
				C220.4,141.6,221.5,138.4,218.9,137.9L218.9,137.9z"/>
		</g>
		<g id="XMLID_12_">
			<path id="XMLID_13_" class="st2" d="M222.8,134.3c-4.3-1.4-8.4-3.5-11.9-6.1c-1.9-1.5-4.8,0.7-2.9,2.2c4,3.1,8.7,5.6,13.7,7.1
				C224.2,138.3,225.2,135.1,222.8,134.3L222.8,134.3z"/>
		</g>
		<g id="XMLID_10_">
			<path id="XMLID_11_" class="st2" d="M226.8,132.8c-1.4-0.6-2.8-1.4-3.9-2.3c-0.4-0.3-0.7-0.6-1.1-1c-0.2-0.2-0.7-0.8-0.2-0.2
				c-0.6-0.8-1.7-1.2-2.7-0.8c-0.9,0.4-1.4,1.5-0.8,2.3c1.9,2.3,4.5,4.1,7.5,5.3C228.1,136.9,229.2,133.7,226.8,132.8L226.8,132.8z"
				/>
		</g>
		<g id="XMLID_8_">
			<path id="XMLID_9_" class="st2" d="M241.9,144.7c0.8-4.6-1-9.4-4.6-13.1c-1.7-1.7-4.6,0.5-2.9,2.2c2.6,2.6,4.2,6.4,3.7,9.7
				C237.7,145.7,241.5,146.8,241.9,144.7L241.9,144.7z"/>
		</g>
		<g id="XMLID_6_">
			<path id="XMLID_7_" class="st2" d="M246.8,140c2-3.1,2.7-6.8,2.8-10.4c0.1-2.2-3.9-2.4-4-0.2c-0.1,2.9-0.6,6.1-2.2,8.7
				C242.2,139.9,245.6,141.9,246.8,140L246.8,140z"/>
		</g>
		<g id="XMLID_4_">
			<path id="XMLID_5_" class="st2" d="M282.2,164.3c2.2-0.3,4.9,0.4,7.1,0.9c2.5,0.6,3.6-2.6,1.1-3.2c-2.9-0.7-6.2-1.5-9.2-1.1
				C278.7,161.3,279.7,164.7,282.2,164.3L282.2,164.3z"/>
		</g>
	</g>
</g>
<text id="XMLID_1_" transform="matrix(1.9029 0 0 2 69.0237 213.037)" class="st1 st3 st4">D</text>
<text transform="matrix(2.4126 0 0 2 359.6267 204.3212)" class="st1 st3 st5">G</text>
</svg>
